M48
;DRILL file {KiCad 4.0.5} date 04/04/17 09:28:54
;FORMAT={-:-/ absolute / metric / decimal}
FMAT,2
METRIC,TZ
T1C0.400
T2C0.800
T3C0.900
T4C1.000
T5C1.143
T6C1.500
T7C1.780
%
G90
G05
M71
T1
X159.1Y-61.8
X166.4Y-73.5
X170.49Y-53.28
X171.3Y-71.9
X171.4Y-77.
X171.5Y-62.5
X173.8Y-73.2
X173.9Y-69.4
X176.Y-59.9
X176.3Y-82.9
X176.8Y-77.
X177.Y-75.7
X177.12Y-58.06
X177.4Y-64.5
X177.9Y-68.3
X178.3Y-58.1
X178.3Y-85.3
X178.41Y-57.05
X179.59Y-56.94
X180.79Y-69.14
X180.8Y-67.81
X180.83Y-57.07
X180.87Y-66.17
X180.9Y-73.
X181.7Y-68.6
X182.495Y-57.065
X184.9Y-73.
X185.95Y-59.725
X186.6Y-69.1
X186.6Y-71.8
X188.655Y-85.955
X189.225Y-65.125
X189.825Y-85.835
X190.025Y-53.5
X191.2Y-83.1
X192.85Y-71.35
X193.7Y-76.3
X197.275Y-85.125
X197.925Y-78.425
X198.765Y-80.875
X199.5Y-74.7
X200.475Y-83.905
X200.975Y-85.115
X201.275Y-74.675
X201.845Y-85.755
X202.075Y-74.1
X202.695Y-86.475
X202.9Y-74.675
X203.075Y-88.65
X204.2Y-73.675
X205.65Y-90.1
X206.4Y-69.9
X206.845Y-80.825
X207.275Y-82.405
X207.6Y-73.7
X209.575Y-85.575
X209.625Y-82.65
X211.9Y-49.24
X213.6Y-76.05
X215.05Y-85.8
X216.1Y-74.95
X218.35Y-77.35
T2
X180.025Y-51.425
X182.525Y-51.425
X185.025Y-51.425
X187.525Y-51.425
X190.025Y-51.425
X213.825Y-90.175
X215.825Y-90.175
X220.575Y-73.725
X224.075Y-73.725
T3
X163.8Y-76.925
X163.8Y-78.925
X163.8Y-80.925
X163.8Y-82.925
X163.85Y-58.725
X163.85Y-60.725
X163.85Y-62.725
X163.85Y-64.725
X166.34Y-72.3
X166.34Y-77.925
X166.34Y-79.925
X166.34Y-81.925
X166.34Y-83.925
X166.34Y-88.55
X166.39Y-54.1
X166.39Y-59.725
X166.39Y-61.725
X166.39Y-63.725
X166.39Y-65.725
X166.39Y-70.35
T4
X162.55Y-50.4
X165.09Y-50.4
X167.63Y-50.4
X170.17Y-50.4
X172.71Y-50.4
X175.25Y-50.4
T5
X174.76Y-83.49
X174.76Y-91.11
X177.3Y-91.11
X179.84Y-83.49
X179.84Y-91.11
T7
X194.025Y-61.175
X194.025Y-67.275
X196.565Y-61.175
X196.565Y-67.275
X199.105Y-61.175
X199.105Y-67.275
X204.925Y-61.175
X204.925Y-67.275
X207.465Y-61.175
X207.465Y-67.275
X210.005Y-61.175
X210.005Y-67.275
T6
X200.875Y-54.25G85X197.575Y-54.25
G05
X206.825Y-54.9G85X206.825Y-51.6
G05
X221.15Y-58.875G85X218.35Y-58.875
G05
X220.1Y-63.575G85X220.1Y-66.375
G05
T0
M30
