G04 #@! TF.FileFunction,Copper,L2,Bot,Signal*
%FSLAX46Y46*%
G04 Gerber Fmt 4.6, Leading zero omitted, Abs format (unit mm)*
G04 Created by KiCad (PCBNEW 4.0.5) date 04/04/17 09:28:52*
%MOMM*%
%LPD*%
G01*
G04 APERTURE LIST*
%ADD10C,0.100000*%
%ADD11C,1.200000*%
%ADD12R,1.200000X1.200000*%
%ADD13O,2.200000X2.499360*%
%ADD14R,0.508000X1.143000*%
%ADD15O,1.473200X0.609600*%
%ADD16C,0.900000*%
%ADD17C,1.600000*%
%ADD18R,1.600000X1.600000*%
%ADD19O,1.800000X5.100000*%
%ADD20O,5.100000X1.800000*%
%ADD21R,1.100000X2.000000*%
%ADD22R,1.100000X0.800000*%
%ADD23R,1.250000X1.500000*%
%ADD24R,1.200000X0.900000*%
%ADD25R,2.000000X1.600000*%
%ADD26R,1.500000X1.250000*%
%ADD27R,0.900000X1.200000*%
%ADD28R,0.680000X2.123950*%
%ADD29R,5.699760X3.749550*%
%ADD30R,1.700000X1.700000*%
%ADD31O,1.700000X1.700000*%
%ADD32O,4.600000X1.800000*%
%ADD33O,1.800000X4.600000*%
%ADD34C,1.778000*%
%ADD35C,0.800000*%
%ADD36C,0.800000*%
%ADD37C,1.000000*%
%ADD38C,2.000000*%
%ADD39C,0.450000*%
%ADD40C,0.203200*%
%ADD41C,0.500000*%
G04 APERTURE END LIST*
D10*
D11*
X190025000Y-51425000D03*
D12*
X180025000Y-51425000D03*
D11*
X182525000Y-51425000D03*
X185025000Y-51425000D03*
X187525000Y-51425000D03*
D13*
X207465000Y-67275000D03*
X204925000Y-67275000D03*
X210005000Y-67275000D03*
D14*
X213585000Y-77565000D03*
X214855000Y-77565000D03*
X216125000Y-77565000D03*
X217395000Y-77565000D03*
X217395000Y-71215000D03*
X216125000Y-71215000D03*
X214855000Y-71215000D03*
X213585000Y-71215000D03*
D15*
X175494000Y-71895000D03*
X175494000Y-73165000D03*
X175494000Y-74435000D03*
X175494000Y-75705000D03*
X169906000Y-75705000D03*
X169906000Y-74435000D03*
X169906000Y-73165000D03*
X169906000Y-71895000D03*
D16*
X166340000Y-72300000D03*
X166340000Y-88550000D03*
D17*
X166340000Y-77925000D03*
X166340000Y-79925000D03*
X166340000Y-81925000D03*
D18*
X166340000Y-83925000D03*
D17*
X163800000Y-76925000D03*
X163800000Y-78925000D03*
X163800000Y-80925000D03*
X163800000Y-82925000D03*
D19*
X206825000Y-53250000D03*
D20*
X199225000Y-54250000D03*
D21*
X211110000Y-82634000D03*
D22*
X211110000Y-84534000D03*
D18*
X213825000Y-90175000D03*
D17*
X215825000Y-90175000D03*
D23*
X215050000Y-81850000D03*
X215050000Y-84350000D03*
D18*
X224075000Y-73725000D03*
D17*
X220575000Y-73725000D03*
D24*
X205635000Y-80825000D03*
X203435000Y-80825000D03*
X203465000Y-84295000D03*
X205665000Y-84295000D03*
X205655000Y-82395000D03*
X203455000Y-82395000D03*
D23*
X214376000Y-60218000D03*
X214376000Y-62718000D03*
D25*
X203875000Y-76425000D03*
X207875000Y-76425000D03*
X200325000Y-76475000D03*
X196325000Y-76475000D03*
D26*
X199275000Y-78425000D03*
X201775000Y-78425000D03*
D27*
X176300000Y-78400000D03*
X176300000Y-80600000D03*
X178300000Y-78400000D03*
X178300000Y-80600000D03*
X180300000Y-78400000D03*
X180300000Y-80600000D03*
X174300000Y-78400000D03*
X174300000Y-80600000D03*
D28*
X176015520Y-57361500D03*
X173475520Y-57361500D03*
X174745520Y-57361500D03*
X172205520Y-57361500D03*
X170935520Y-57361500D03*
D29*
X173475000Y-66807000D03*
D24*
X180600000Y-48600000D03*
X182800000Y-48600000D03*
X180600000Y-49950000D03*
X182800000Y-49950000D03*
D27*
X204225000Y-86675000D03*
X204225000Y-88875000D03*
X205675000Y-86725000D03*
X205675000Y-88925000D03*
D24*
X182495000Y-58215000D03*
X184695000Y-58215000D03*
X182495000Y-59705000D03*
X184695000Y-59705000D03*
D30*
X162550000Y-50400000D03*
D31*
X165090000Y-50400000D03*
X167630000Y-50400000D03*
X170170000Y-50400000D03*
X172710000Y-50400000D03*
X175250000Y-50400000D03*
D16*
X166390000Y-54100000D03*
X166390000Y-70350000D03*
D17*
X166390000Y-59725000D03*
X166390000Y-61725000D03*
X166390000Y-63725000D03*
D18*
X166390000Y-65725000D03*
D17*
X163850000Y-58725000D03*
X163850000Y-60725000D03*
X163850000Y-62725000D03*
X163850000Y-64725000D03*
D26*
X170955000Y-54877000D03*
X173455000Y-54877000D03*
D23*
X187900000Y-69150000D03*
X187900000Y-71650000D03*
D26*
X201355000Y-82395000D03*
X198855000Y-82395000D03*
D23*
X179200000Y-74450000D03*
X179200000Y-71950000D03*
D32*
X219750000Y-58875000D03*
D33*
X220100000Y-64975000D03*
D34*
X179840000Y-83490000D03*
X174760000Y-83490000D03*
X174760000Y-91110000D03*
X177300000Y-91110000D03*
X179840000Y-91110000D03*
D27*
X190000000Y-57975000D03*
X190000000Y-55775000D03*
D13*
X207465000Y-61175000D03*
X204925000Y-61175000D03*
X210005000Y-61175000D03*
X196565000Y-67275000D03*
X194025000Y-67275000D03*
X199105000Y-67275000D03*
X196565000Y-61175000D03*
X194025000Y-61175000D03*
X199105000Y-61175000D03*
D35*
X209625000Y-82650000D03*
X192850000Y-71350000D03*
X211900000Y-49240000D03*
X215050000Y-85800000D03*
X197925000Y-78425000D03*
X198765000Y-80875000D03*
X177400000Y-64500000D03*
X173900000Y-69400000D03*
X186600000Y-69100000D03*
X171500000Y-62500000D03*
X218350000Y-77350000D03*
X176000000Y-59900000D03*
X173800000Y-73200000D03*
X186600000Y-71800000D03*
X197275000Y-85125000D03*
X200975000Y-85115000D03*
X171400000Y-77000000D03*
X176800000Y-77000000D03*
X193700000Y-76300000D03*
X202695000Y-86475000D03*
X188655000Y-85955000D03*
X189825000Y-85835000D03*
X201845000Y-85755000D03*
X200475000Y-83905000D03*
X191200000Y-83100000D03*
X213600000Y-76050000D03*
X189225000Y-65125000D03*
X216100000Y-74950000D03*
X206400000Y-69900000D03*
X166400000Y-73500000D03*
X159100000Y-61800000D03*
X177120000Y-58060000D03*
X170490000Y-53280000D03*
X180790000Y-69140000D03*
X180800000Y-67810000D03*
X178300000Y-58100000D03*
X178410000Y-57050000D03*
X180870000Y-66170000D03*
X179590000Y-56940000D03*
X181700000Y-68600000D03*
X209575000Y-85575000D03*
X199500000Y-74700000D03*
X204200000Y-73675000D03*
X207600000Y-73700000D03*
X171300000Y-71900000D03*
X180830000Y-57070000D03*
X185950000Y-59725000D03*
X182495000Y-57065000D03*
X207275000Y-82405000D03*
X205650000Y-90100000D03*
X203075000Y-88650000D03*
X206845000Y-80825000D03*
X178300000Y-85300000D03*
X176300000Y-82900000D03*
X184900000Y-73000000D03*
X180900000Y-73000000D03*
X177900000Y-68300000D03*
X177000000Y-75700000D03*
X202900000Y-74675000D03*
X202075000Y-74100000D03*
X201275000Y-74675000D03*
X190025000Y-53500000D03*
D36*
X211110000Y-82634000D02*
X209641000Y-82634000D01*
X209641000Y-82634000D02*
X209625000Y-82650000D01*
X223050000Y-71850000D02*
X223125000Y-71850000D01*
X213000000Y-72450000D02*
X218950000Y-72450000D01*
X218950000Y-72450000D02*
X219550000Y-71850000D01*
X219550000Y-71850000D02*
X223050000Y-71850000D01*
X211947598Y-71397598D02*
X213000000Y-72450000D01*
X192897598Y-71397598D02*
X211947598Y-71397598D01*
X192850000Y-71350000D02*
X192897598Y-71397598D01*
X223125000Y-71850000D02*
X224075000Y-70900000D01*
X215050000Y-81850000D02*
X220800000Y-81850000D01*
X223000000Y-79650000D02*
X224075000Y-78575000D01*
X224075000Y-78575000D02*
X224075000Y-73725000D01*
X220800000Y-81850000D02*
X223000000Y-79650000D01*
X215050000Y-81850000D02*
X211894000Y-81850000D01*
X211894000Y-81850000D02*
X211110000Y-82634000D01*
D37*
X214376000Y-60218000D02*
X214376000Y-49376000D01*
X214376000Y-49376000D02*
X214200000Y-49200000D01*
D36*
X211900000Y-49240000D02*
X211900000Y-49200000D01*
X211900000Y-49200000D02*
X211900000Y-49240000D01*
X211900000Y-49240000D02*
X211900000Y-49200000D01*
D38*
X214200000Y-49200000D02*
X211900000Y-49200000D01*
X211900000Y-49200000D02*
X203800000Y-49200000D01*
X203825000Y-55805000D02*
X203825000Y-49200000D01*
X207545000Y-59525000D02*
X203825000Y-55805000D01*
X203800000Y-49890000D02*
X203800000Y-49200000D01*
X203825000Y-49200000D02*
X203800000Y-49225000D01*
X219750000Y-58875000D02*
X219750000Y-51375000D01*
X219750000Y-51375000D02*
X217575000Y-49200000D01*
X217575000Y-49200000D02*
X214200000Y-49200000D01*
X203800000Y-49200000D02*
X197300000Y-49200000D01*
X197300000Y-49200000D02*
X195075000Y-51425000D01*
X195075000Y-51425000D02*
X195075000Y-57750000D01*
X195075000Y-57750000D02*
X196645000Y-59320000D01*
D37*
X224075000Y-73725000D02*
X224075000Y-72875000D01*
X224075000Y-72875000D02*
X224075000Y-70900000D01*
X224075000Y-70900000D02*
X224075000Y-60095000D01*
X222855000Y-58875000D02*
X219750000Y-58875000D01*
X224075000Y-60095000D02*
X222855000Y-58875000D01*
D38*
X196645000Y-59320000D02*
X196645000Y-61175000D01*
X207545000Y-61175000D02*
X207545000Y-59525000D01*
D36*
X215050000Y-84350000D02*
X215050000Y-85800000D01*
D38*
X218520000Y-69825000D02*
X220100000Y-68245000D01*
X216600000Y-69825000D02*
X216662000Y-69825000D01*
X218520000Y-69825000D02*
X216662000Y-69825000D01*
X220100000Y-68245000D02*
X220100000Y-64975000D01*
D37*
X214376000Y-62718000D02*
X215626000Y-62718000D01*
X216662000Y-63754000D02*
X216662000Y-69600000D01*
X215626000Y-62718000D02*
X216662000Y-63754000D01*
X217395000Y-71215000D02*
X217395000Y-69600000D01*
X216125000Y-71215000D02*
X216125000Y-69600000D01*
D39*
X199275000Y-78425000D02*
X197925000Y-78425000D01*
X198765000Y-80875000D02*
X198765000Y-82305000D01*
D40*
X198765000Y-82305000D02*
X198855000Y-82395000D01*
D39*
X198815000Y-80825000D02*
X203435000Y-80825000D01*
D40*
X198765000Y-80875000D02*
X198815000Y-80825000D01*
D39*
X203455000Y-82395000D02*
X203455000Y-80845000D01*
D40*
X203455000Y-80845000D02*
X203435000Y-80825000D01*
X203465000Y-82405000D02*
X203455000Y-82395000D01*
D39*
X180600000Y-49950000D02*
X180600000Y-48600000D01*
X187900000Y-69150000D02*
X187900000Y-61125000D01*
X190000000Y-59025000D02*
X190000000Y-57975000D01*
X187900000Y-61125000D02*
X190000000Y-59025000D01*
D41*
X176360000Y-65180000D02*
X175102000Y-65180000D01*
X175102000Y-65180000D02*
X173475000Y-66807000D01*
X176720000Y-65180000D02*
X176360000Y-65180000D01*
X176360000Y-65180000D02*
X176330000Y-65180000D01*
X177400000Y-64500000D02*
X176720000Y-65180000D01*
X173900000Y-69400000D02*
X173900000Y-67232000D01*
X173900000Y-67232000D02*
X173475000Y-66807000D01*
X173455000Y-54877000D02*
X176523000Y-54877000D01*
X179700000Y-48600000D02*
X180600000Y-48600000D01*
X178700000Y-49600000D02*
X179700000Y-48600000D01*
X178700000Y-52700000D02*
X178700000Y-49600000D01*
X176523000Y-54877000D02*
X178700000Y-52700000D01*
X172500000Y-73300000D02*
X172500000Y-77500000D01*
X173400000Y-78400000D02*
X174300000Y-78400000D01*
X172500000Y-77500000D02*
X173400000Y-78400000D01*
X175494000Y-74435000D02*
X173435000Y-74435000D01*
X172500000Y-73500000D02*
X172500000Y-73300000D01*
X172500000Y-73300000D02*
X172500000Y-67782000D01*
X173435000Y-74435000D02*
X172500000Y-73500000D01*
X172500000Y-67782000D02*
X173475000Y-66807000D01*
X173475520Y-57361500D02*
X173475000Y-57362020D01*
X173475000Y-57362020D02*
X173475000Y-66807000D01*
X173475520Y-57361500D02*
X173455000Y-57340980D01*
X173455000Y-57340980D02*
X173455000Y-54877000D01*
X175494000Y-74435000D02*
X179185000Y-74435000D01*
X179185000Y-74435000D02*
X179200000Y-74450000D01*
X180300000Y-78400000D02*
X178300000Y-78400000D01*
X178300000Y-78400000D02*
X176300000Y-78400000D01*
X176300000Y-78400000D02*
X174300000Y-78400000D01*
D39*
X186600000Y-69100000D02*
X186650000Y-69150000D01*
X186650000Y-69150000D02*
X187900000Y-69150000D01*
X173475000Y-66807000D02*
X173475000Y-63675000D01*
X172300000Y-62500000D02*
X171500000Y-62500000D01*
X173475000Y-63675000D02*
X172300000Y-62500000D01*
D41*
X212850000Y-78800000D02*
X210625000Y-76575000D01*
X210625000Y-74100000D02*
X209397598Y-72872598D01*
X210625000Y-76575000D02*
X210625000Y-74100000D01*
X217395000Y-77565000D02*
X217395000Y-78230000D01*
X216825000Y-78800000D02*
X212850000Y-78800000D01*
X217395000Y-78230000D02*
X216825000Y-78800000D01*
X217395000Y-77565000D02*
X218135000Y-77565000D01*
X218135000Y-77565000D02*
X218350000Y-77350000D01*
X189122598Y-72872598D02*
X187900000Y-71650000D01*
X209397598Y-72872598D02*
X189122598Y-72872598D01*
X217405000Y-77575000D02*
X217395000Y-77565000D01*
X182525000Y-51425000D02*
X176588500Y-57361500D01*
X176588500Y-57361500D02*
X176015520Y-57361500D01*
X176015520Y-57361500D02*
X176015520Y-59884480D01*
X176015520Y-59884480D02*
X176000000Y-59900000D01*
D37*
X163800000Y-78925000D02*
X164425000Y-78925000D01*
X164425000Y-78925000D02*
X165425000Y-79925000D01*
X165425000Y-79925000D02*
X166340000Y-79925000D01*
D41*
X173835000Y-73165000D02*
X175494000Y-73165000D01*
X173800000Y-73200000D02*
X173835000Y-73165000D01*
D37*
X166390000Y-61725000D02*
X166065000Y-61400000D01*
X166065000Y-61400000D02*
X164525000Y-61400000D01*
X164525000Y-61400000D02*
X163850000Y-60725000D01*
D41*
X179200000Y-71800000D02*
X177835000Y-73165000D01*
X177835000Y-73165000D02*
X175494000Y-73165000D01*
X179200000Y-71800000D02*
X186600000Y-71800000D01*
D40*
X179100000Y-71900000D02*
X179200000Y-71800000D01*
D41*
X186750000Y-71650000D02*
X187900000Y-71650000D01*
D39*
X186600000Y-71800000D02*
X186750000Y-71650000D01*
X200975000Y-85115000D02*
X197285000Y-85115000D01*
D40*
X197285000Y-85115000D02*
X197275000Y-85125000D01*
D39*
X203465000Y-84295000D02*
X203465000Y-85915000D01*
X203465000Y-85915000D02*
X204225000Y-86675000D01*
D40*
X205675000Y-86725000D02*
X204275000Y-86725000D01*
X204275000Y-86725000D02*
X204225000Y-86675000D01*
D39*
X203465000Y-84295000D02*
X201955000Y-84295000D01*
X201955000Y-84295000D02*
X201355000Y-83695000D01*
X201355000Y-82395000D02*
X201355000Y-83695000D01*
X201355000Y-83695000D02*
X201355000Y-84735000D01*
X201355000Y-84735000D02*
X200975000Y-85115000D01*
D41*
X163850000Y-62725000D02*
X162825000Y-62725000D01*
X162738500Y-57361500D02*
X170935520Y-57361500D01*
X162000000Y-58100000D02*
X162738500Y-57361500D01*
X162000000Y-61900000D02*
X162000000Y-58100000D01*
X162825000Y-62725000D02*
X162000000Y-61900000D01*
X192500000Y-77000000D02*
X193000000Y-77000000D01*
X168475000Y-81925000D02*
X171400000Y-79000000D01*
X171400000Y-79000000D02*
X171400000Y-77000000D01*
X176800000Y-77000000D02*
X192500000Y-77000000D01*
X166340000Y-81925000D02*
X168475000Y-81925000D01*
X193000000Y-77000000D02*
X193700000Y-76300000D01*
D37*
X163800000Y-80925000D02*
X164525000Y-80925000D01*
X164525000Y-80925000D02*
X165525000Y-81925000D01*
X165525000Y-81925000D02*
X166340000Y-81925000D01*
D41*
X172205520Y-57361500D02*
X170935520Y-57361500D01*
X170955000Y-54877000D02*
X170935520Y-54896480D01*
X170935520Y-54896480D02*
X170935520Y-57361500D01*
D37*
X166390000Y-63725000D02*
X165965000Y-63300000D01*
X165965000Y-63300000D02*
X164425000Y-63300000D01*
X164425000Y-63300000D02*
X163850000Y-62725000D01*
D41*
X188655000Y-85955000D02*
X189400000Y-86700000D01*
X202470000Y-86700000D02*
X202695000Y-86475000D01*
X189400000Y-86700000D02*
X202470000Y-86700000D01*
D40*
X202585000Y-86585000D02*
X201005000Y-86585000D01*
X202695000Y-86475000D02*
X202585000Y-86585000D01*
X202695000Y-86475000D02*
X202645000Y-86425000D01*
D41*
X201845000Y-85755000D02*
X201825998Y-85755000D01*
X189990000Y-86000000D02*
X189825000Y-85835000D01*
X201580998Y-86000000D02*
X189990000Y-86000000D01*
X201825998Y-85755000D02*
X201580998Y-86000000D01*
D39*
X200475000Y-83905000D02*
X195705000Y-83905000D01*
X194900000Y-83100000D02*
X191200000Y-83100000D01*
X195705000Y-83905000D02*
X194900000Y-83100000D01*
D41*
X213585000Y-77565000D02*
X213585000Y-76065000D01*
X213585000Y-76065000D02*
X213600000Y-76050000D01*
X213570000Y-77550000D02*
X213585000Y-77565000D01*
X189225000Y-69900000D02*
X189225000Y-71150000D01*
X211275000Y-72200000D02*
X214855000Y-75780000D01*
X190275000Y-72200000D02*
X211275000Y-72200000D01*
X189225000Y-71150000D02*
X190275000Y-72200000D01*
X189225000Y-69900000D02*
X189225000Y-65125000D01*
X214855000Y-75780000D02*
X214855000Y-77565000D01*
X216125000Y-74975000D02*
X216125000Y-77565000D01*
X216100000Y-74950000D02*
X216125000Y-74975000D01*
D38*
X210005000Y-67275000D02*
X210005000Y-69825000D01*
D36*
X206400000Y-69900000D02*
X206400000Y-69825000D01*
X206400000Y-69825000D02*
X206400000Y-69900000D01*
X206400000Y-69900000D02*
X206400000Y-69825000D01*
D38*
X199105000Y-67275000D02*
X199105000Y-68875196D01*
X200054804Y-69825000D02*
X206400000Y-69825000D01*
X206400000Y-69825000D02*
X210050000Y-69825000D01*
X210050000Y-69825000D02*
X214400000Y-69825000D01*
X199105000Y-68875196D02*
X200054804Y-69825000D01*
D37*
X214855000Y-71215000D02*
X214855000Y-69600000D01*
X213585000Y-71215000D02*
X213585000Y-69600000D01*
X213620000Y-70300000D02*
X213620000Y-69600000D01*
X213620000Y-69635000D02*
X213620000Y-70300000D01*
X213585000Y-69600000D02*
X213620000Y-69635000D01*
D41*
X166390000Y-59725000D02*
X168000000Y-61335000D01*
X168000000Y-72500000D02*
X167335000Y-73165000D01*
X168000000Y-61335000D02*
X168000000Y-72500000D01*
X166735000Y-73165000D02*
X167335000Y-73165000D01*
X167335000Y-73165000D02*
X169906000Y-73165000D01*
X166400000Y-73500000D02*
X166735000Y-73165000D01*
X162025000Y-64725000D02*
X163850000Y-64725000D01*
X159100000Y-61800000D02*
X162025000Y-64725000D01*
D37*
X163850000Y-64725000D02*
X161875000Y-64725000D01*
X161225000Y-82925000D02*
X163800000Y-82925000D01*
X159600000Y-81300000D02*
X161225000Y-82925000D01*
X159600000Y-67000000D02*
X159600000Y-81300000D01*
X161875000Y-64725000D02*
X159600000Y-67000000D01*
X163800000Y-82925000D02*
X164525000Y-82925000D01*
X164525000Y-82925000D02*
X165525000Y-83925000D01*
X165525000Y-83925000D02*
X166340000Y-83925000D01*
D41*
X166390000Y-65725000D02*
X166065000Y-65400000D01*
X166065000Y-65400000D02*
X164525000Y-65400000D01*
X164525000Y-65400000D02*
X163850000Y-64725000D01*
X169906000Y-74435000D02*
X164865000Y-74435000D01*
X163800000Y-75500000D02*
X163800000Y-76925000D01*
X164865000Y-74435000D02*
X163800000Y-75500000D01*
D39*
X178190000Y-66540000D02*
X180790000Y-69140000D01*
X178190000Y-59130000D02*
X178190000Y-66540000D01*
X177120000Y-58060000D02*
X178190000Y-59130000D01*
X168550000Y-53280000D02*
X166980000Y-53280000D01*
X165090000Y-51390000D02*
X165090000Y-50400000D01*
X166980000Y-53280000D02*
X165090000Y-51390000D01*
D40*
X168400000Y-53280000D02*
X168550000Y-53280000D01*
D39*
X168550000Y-53280000D02*
X170490000Y-53280000D01*
X178820000Y-58620000D02*
X178820000Y-65830000D01*
X178820000Y-65830000D02*
X180800000Y-67810000D01*
X178300000Y-58100000D02*
X178820000Y-58620000D01*
X178410000Y-57050000D02*
X179440000Y-58080000D01*
X179440000Y-64740000D02*
X180870000Y-66170000D01*
X179440000Y-58080000D02*
X179440000Y-64740000D01*
X181700000Y-66020000D02*
X181700000Y-65820000D01*
X180080000Y-57430000D02*
X179590000Y-56940000D01*
X180080000Y-64200000D02*
X180080000Y-57430000D01*
X181700000Y-65820000D02*
X180080000Y-64200000D01*
X181700000Y-67300000D02*
X181700000Y-68600000D01*
X181700000Y-67300000D02*
X181700000Y-66020000D01*
D40*
X181700000Y-66020000D02*
X181700000Y-65940000D01*
D39*
X209575000Y-85575000D02*
X209575000Y-84875000D01*
X209916000Y-84534000D02*
X211110000Y-84534000D01*
X209575000Y-84875000D02*
X209916000Y-84534000D01*
X210616000Y-84534000D02*
X211110000Y-84534000D01*
D38*
X196645000Y-65655000D02*
X196645000Y-67275000D01*
D36*
X199500000Y-74700000D02*
X197200000Y-74700000D01*
X196325000Y-75575000D02*
X196325000Y-76475000D01*
X197200000Y-74700000D02*
X196325000Y-75575000D01*
X196645000Y-76155000D02*
X196325000Y-76475000D01*
D38*
X199225000Y-54250000D02*
X199225000Y-61135000D01*
X199225000Y-61135000D02*
X199185000Y-61175000D01*
X199185000Y-61175000D02*
X199185000Y-63115000D01*
X199185000Y-63115000D02*
X196645000Y-65655000D01*
D36*
X204200000Y-73675000D02*
X206325000Y-73675000D01*
D38*
X207545000Y-65655000D02*
X207545000Y-67275000D01*
D36*
X207600000Y-73700000D02*
X207600000Y-76150000D01*
X207600000Y-76150000D02*
X207875000Y-76425000D01*
X207575000Y-73675000D02*
X206325000Y-73675000D01*
X207600000Y-73700000D02*
X207575000Y-73675000D01*
X207600000Y-76150000D02*
X207875000Y-76425000D01*
D38*
X210085000Y-61175000D02*
X210085000Y-56510000D01*
X210085000Y-56510000D02*
X206825000Y-53250000D01*
X210085000Y-61175000D02*
X210085000Y-63115000D01*
X210085000Y-63115000D02*
X207545000Y-65655000D01*
D41*
X169906000Y-71895000D02*
X171295000Y-71895000D01*
D40*
X171295000Y-71895000D02*
X171300000Y-71900000D01*
D39*
X180825000Y-59375000D02*
X181155000Y-59705000D01*
X181155000Y-59705000D02*
X182495000Y-59705000D01*
X180825000Y-57075000D02*
X180825000Y-59375000D01*
X180830000Y-57070000D02*
X180825000Y-57075000D01*
X184695000Y-59705000D02*
X185930000Y-59705000D01*
X185930000Y-59705000D02*
X185950000Y-59725000D01*
X184695000Y-58215000D02*
X184695000Y-59705000D01*
X182495000Y-58215000D02*
X182495000Y-57065000D01*
X205665000Y-84295000D02*
X205665000Y-82405000D01*
D40*
X205665000Y-82405000D02*
X205655000Y-82395000D01*
D39*
X205655000Y-82395000D02*
X207265000Y-82395000D01*
D40*
X207265000Y-82395000D02*
X207275000Y-82405000D01*
D39*
X205675000Y-88925000D02*
X205675000Y-90075000D01*
D40*
X205675000Y-90075000D02*
X205650000Y-90100000D01*
X204225000Y-88875000D02*
X203300000Y-88875000D01*
X203300000Y-88875000D02*
X203075000Y-88650000D01*
D39*
X205635000Y-80825000D02*
X206845000Y-80825000D01*
X182800000Y-49950000D02*
X184600000Y-49950000D01*
X185025000Y-50375000D02*
X185025000Y-51425000D01*
X184600000Y-49950000D02*
X185025000Y-50375000D01*
X186200000Y-48600000D02*
X186900000Y-48600000D01*
X187525000Y-49225000D02*
X187525000Y-51425000D01*
X186900000Y-48600000D02*
X187525000Y-49225000D01*
X186200000Y-48600000D02*
X182800000Y-48600000D01*
X174300000Y-80600000D02*
X174300000Y-83030000D01*
D40*
X174300000Y-83030000D02*
X174760000Y-83490000D01*
D39*
X180300000Y-80600000D02*
X180300000Y-83030000D01*
D40*
X180300000Y-83030000D02*
X179840000Y-83490000D01*
D39*
X178300000Y-80600000D02*
X178300000Y-85300000D01*
X178300000Y-85300000D02*
X178300000Y-89570000D01*
X178300000Y-89570000D02*
X179840000Y-91110000D01*
X176300000Y-80600000D02*
X176300000Y-82900000D01*
X176300000Y-82900000D02*
X176300000Y-89570000D01*
X176300000Y-89570000D02*
X174760000Y-91110000D01*
X180900000Y-73000000D02*
X184900000Y-73000000D01*
X175494000Y-71895000D02*
X177305000Y-71895000D01*
X177900000Y-71300000D02*
X177900000Y-68300000D01*
X177305000Y-71895000D02*
X177900000Y-71300000D01*
X175494000Y-75705000D02*
X176995000Y-75705000D01*
D40*
X176995000Y-75705000D02*
X177000000Y-75700000D01*
D41*
X202900000Y-74675000D02*
X203175000Y-74675000D01*
X203875000Y-75375000D02*
X203875000Y-76425000D01*
X203175000Y-74675000D02*
X203875000Y-75375000D01*
D39*
X202075000Y-77375000D02*
X202075000Y-78125000D01*
X202075000Y-74100000D02*
X202075000Y-77375000D01*
X202075000Y-78125000D02*
X201775000Y-78425000D01*
X201100000Y-75300000D02*
X201100000Y-75675000D01*
X201100000Y-74850000D02*
X201100000Y-75300000D01*
X201275000Y-74675000D02*
X201100000Y-74850000D01*
X190025000Y-53500000D02*
X190025000Y-55750000D01*
X190025000Y-55750000D02*
X190000000Y-55775000D01*
X190025000Y-53500000D02*
X190025000Y-51425000D01*
D41*
G36*
X178166841Y-49066841D02*
X178003395Y-49311457D01*
X177945999Y-49600000D01*
X177946000Y-49600005D01*
X177946000Y-52387683D01*
X176210682Y-54123000D01*
X174694600Y-54123000D01*
X174683730Y-54065229D01*
X174573348Y-53893691D01*
X174404925Y-53778613D01*
X174205000Y-53738127D01*
X172705000Y-53738127D01*
X172518229Y-53773270D01*
X172346691Y-53883652D01*
X172231613Y-54052075D01*
X172205509Y-54180978D01*
X172183730Y-54065229D01*
X172073348Y-53893691D01*
X171904925Y-53778613D01*
X171705000Y-53738127D01*
X171278605Y-53738127D01*
X171393842Y-53460606D01*
X171394156Y-53100972D01*
X171256820Y-52768594D01*
X171002743Y-52514073D01*
X170670606Y-52376158D01*
X170310972Y-52375844D01*
X169978594Y-52513180D01*
X169940708Y-52551000D01*
X167281962Y-52551000D01*
X166074455Y-51343493D01*
X166218210Y-51128348D01*
X166261049Y-51243586D01*
X166688081Y-51703247D01*
X167258511Y-51964500D01*
X167374503Y-51987572D01*
X167626000Y-51818494D01*
X167626000Y-50404000D01*
X167606000Y-50404000D01*
X167606000Y-50396000D01*
X167626000Y-50396000D01*
X167626000Y-48981506D01*
X167634000Y-48981506D01*
X167634000Y-50396000D01*
X167654000Y-50396000D01*
X167654000Y-50404000D01*
X167634000Y-50404000D01*
X167634000Y-51818494D01*
X167885497Y-51987572D01*
X168001489Y-51964500D01*
X168571919Y-51703247D01*
X168998951Y-51243586D01*
X169041790Y-51128348D01*
X169212577Y-51383949D01*
X169651847Y-51677459D01*
X170170000Y-51780526D01*
X170688153Y-51677459D01*
X171127423Y-51383949D01*
X171420933Y-50944679D01*
X171440000Y-50848823D01*
X171459067Y-50944679D01*
X171752577Y-51383949D01*
X172191847Y-51677459D01*
X172710000Y-51780526D01*
X173228153Y-51677459D01*
X173667423Y-51383949D01*
X173960933Y-50944679D01*
X173980000Y-50848823D01*
X173999067Y-50944679D01*
X174292577Y-51383949D01*
X174731847Y-51677459D01*
X175250000Y-51780526D01*
X175768153Y-51677459D01*
X176207423Y-51383949D01*
X176500933Y-50944679D01*
X176604000Y-50426526D01*
X176604000Y-50373474D01*
X176500933Y-49855321D01*
X176207423Y-49416051D01*
X175768153Y-49122541D01*
X175250000Y-49019474D01*
X174731847Y-49122541D01*
X174292577Y-49416051D01*
X173999067Y-49855321D01*
X173980000Y-49951177D01*
X173960933Y-49855321D01*
X173667423Y-49416051D01*
X173228153Y-49122541D01*
X172710000Y-49019474D01*
X172191847Y-49122541D01*
X171752577Y-49416051D01*
X171459067Y-49855321D01*
X171440000Y-49951177D01*
X171420933Y-49855321D01*
X171127423Y-49416051D01*
X170688153Y-49122541D01*
X170170000Y-49019474D01*
X169651847Y-49122541D01*
X169212577Y-49416051D01*
X169041790Y-49671652D01*
X168998951Y-49556414D01*
X168571919Y-49096753D01*
X168001489Y-48835500D01*
X167885497Y-48812428D01*
X167634000Y-48981506D01*
X167626000Y-48981506D01*
X167374503Y-48812428D01*
X167258511Y-48835500D01*
X166688081Y-49096753D01*
X166261049Y-49556414D01*
X166218210Y-49671652D01*
X166047423Y-49416051D01*
X165608153Y-49122541D01*
X165090000Y-49019474D01*
X164571847Y-49122541D01*
X164132577Y-49416051D01*
X163913873Y-49743366D01*
X163913873Y-49550000D01*
X163878730Y-49363229D01*
X163768348Y-49191691D01*
X163599925Y-49076613D01*
X163400000Y-49036127D01*
X161700000Y-49036127D01*
X161513229Y-49071270D01*
X161341691Y-49181652D01*
X161226613Y-49350075D01*
X161186127Y-49550000D01*
X161186127Y-51250000D01*
X161221270Y-51436771D01*
X161331652Y-51608309D01*
X161500075Y-51723387D01*
X161700000Y-51763873D01*
X163400000Y-51763873D01*
X163586771Y-51728730D01*
X163758309Y-51618348D01*
X163873387Y-51449925D01*
X163913873Y-51250000D01*
X163913873Y-51056634D01*
X164132577Y-51383949D01*
X164394625Y-51559043D01*
X164416492Y-51668976D01*
X164574519Y-51905481D01*
X165927790Y-53258752D01*
X165850308Y-53290767D01*
X165581710Y-53558897D01*
X165436166Y-53909405D01*
X165435835Y-54288930D01*
X165580767Y-54639692D01*
X165848897Y-54908290D01*
X166199405Y-55053834D01*
X166578930Y-55054165D01*
X166929692Y-54909233D01*
X167198290Y-54641103D01*
X167343834Y-54290595D01*
X167344080Y-54009000D01*
X169761045Y-54009000D01*
X169731613Y-54052075D01*
X169691127Y-54252000D01*
X169691127Y-55502000D01*
X169726270Y-55688771D01*
X169836652Y-55860309D01*
X170005075Y-55975387D01*
X170181520Y-56011118D01*
X170181520Y-56012684D01*
X170122133Y-56099600D01*
X170081647Y-56299525D01*
X170081647Y-56607500D01*
X162738505Y-56607500D01*
X162738500Y-56607499D01*
X162449957Y-56664895D01*
X162205341Y-56828341D01*
X162205339Y-56828344D01*
X161466841Y-57566841D01*
X161303395Y-57811457D01*
X161245999Y-58100000D01*
X161246000Y-58100005D01*
X161246000Y-61225000D01*
X159803337Y-61225000D01*
X159612743Y-61034073D01*
X159280606Y-60896158D01*
X158920972Y-60895844D01*
X158588594Y-61033180D01*
X158334073Y-61287257D01*
X158196158Y-61619394D01*
X158195844Y-61979028D01*
X158333180Y-62311406D01*
X158587257Y-62565927D01*
X158919394Y-62703842D01*
X158937540Y-62703858D01*
X160706906Y-64473224D01*
X158890065Y-66290065D01*
X158672425Y-66615786D01*
X158596000Y-67000000D01*
X158596000Y-81300000D01*
X158672425Y-81684214D01*
X158890065Y-82009935D01*
X160515065Y-83634935D01*
X160840786Y-83852575D01*
X161225000Y-83929000D01*
X162959722Y-83929000D01*
X163060379Y-84029833D01*
X163539480Y-84228773D01*
X164058244Y-84229226D01*
X164306697Y-84126567D01*
X164815065Y-84634936D01*
X165037095Y-84783291D01*
X165061270Y-84911771D01*
X165171652Y-85083309D01*
X165340075Y-85198387D01*
X165540000Y-85238873D01*
X167140000Y-85238873D01*
X167326771Y-85203730D01*
X167498309Y-85093348D01*
X167613387Y-84924925D01*
X167653873Y-84725000D01*
X167653873Y-83125000D01*
X167618730Y-82938229D01*
X167508348Y-82766691D01*
X167409941Y-82699452D01*
X167430429Y-82679000D01*
X168474995Y-82679000D01*
X168475000Y-82679001D01*
X168763543Y-82621605D01*
X169008159Y-82458159D01*
X171933156Y-79533161D01*
X171933159Y-79533159D01*
X172096605Y-79288543D01*
X172108494Y-79228773D01*
X172154001Y-79000000D01*
X172154000Y-78999995D01*
X172154000Y-78220318D01*
X172866839Y-78933156D01*
X172866841Y-78933159D01*
X173011525Y-79029833D01*
X173111456Y-79096605D01*
X173363747Y-79146790D01*
X173371270Y-79186771D01*
X173481652Y-79358309D01*
X173650075Y-79473387D01*
X173778978Y-79499491D01*
X173663229Y-79521270D01*
X173491691Y-79631652D01*
X173376613Y-79800075D01*
X173336127Y-80000000D01*
X173336127Y-81200000D01*
X173371270Y-81386771D01*
X173481652Y-81558309D01*
X173571000Y-81619358D01*
X173571000Y-82720998D01*
X173367243Y-83211700D01*
X173366759Y-83765869D01*
X173578384Y-84278040D01*
X173969899Y-84670239D01*
X174481700Y-84882757D01*
X175035869Y-84883241D01*
X175548040Y-84671616D01*
X175571000Y-84648696D01*
X175571000Y-89268038D01*
X175097297Y-89741741D01*
X175038300Y-89717243D01*
X174484131Y-89716759D01*
X173971960Y-89928384D01*
X173579761Y-90319899D01*
X173367243Y-90831700D01*
X173366759Y-91385869D01*
X173578384Y-91898040D01*
X173969899Y-92290239D01*
X174481700Y-92502757D01*
X175035869Y-92503241D01*
X175548040Y-92291616D01*
X175673625Y-92166249D01*
X176249408Y-92166249D01*
X176316190Y-92470903D01*
X176911873Y-92743798D01*
X177566644Y-92767962D01*
X178180822Y-92539716D01*
X178283810Y-92470903D01*
X178350592Y-92166249D01*
X177300000Y-91115657D01*
X176249408Y-92166249D01*
X175673625Y-92166249D01*
X175864622Y-91975586D01*
X175870284Y-91990822D01*
X175939097Y-92093810D01*
X176243751Y-92160592D01*
X177294343Y-91110000D01*
X177280201Y-91095858D01*
X177285858Y-91090201D01*
X177300000Y-91104343D01*
X177314142Y-91090201D01*
X177319799Y-91095858D01*
X177305657Y-91110000D01*
X178356249Y-92160592D01*
X178660903Y-92093810D01*
X178721585Y-91961351D01*
X179049899Y-92290239D01*
X179561700Y-92502757D01*
X180115869Y-92503241D01*
X180628040Y-92291616D01*
X181020239Y-91900101D01*
X181232757Y-91388300D01*
X181233241Y-90834131D01*
X181021616Y-90321960D01*
X180630101Y-89929761D01*
X180118300Y-89717243D01*
X179564131Y-89716759D01*
X179502986Y-89742024D01*
X179029000Y-89268038D01*
X179029000Y-85849606D01*
X179065927Y-85812743D01*
X179203842Y-85480606D01*
X179204156Y-85120972D01*
X179066820Y-84788594D01*
X179029000Y-84750708D01*
X179029000Y-84649303D01*
X179049899Y-84670239D01*
X179561700Y-84882757D01*
X180115869Y-84883241D01*
X180628040Y-84671616D01*
X181020239Y-84280101D01*
X181232757Y-83768300D01*
X181233241Y-83214131D01*
X181029000Y-82719831D01*
X181029000Y-81619382D01*
X181108309Y-81568348D01*
X181223387Y-81399925D01*
X181263873Y-81200000D01*
X181263873Y-80000000D01*
X181228730Y-79813229D01*
X181118348Y-79641691D01*
X180949925Y-79526613D01*
X180821022Y-79500509D01*
X180936771Y-79478730D01*
X181108309Y-79368348D01*
X181223387Y-79199925D01*
X181263873Y-79000000D01*
X181263873Y-77800000D01*
X181255218Y-77754000D01*
X183158655Y-77754000D01*
X183150000Y-77800000D01*
X183150000Y-94246000D01*
X155354000Y-94246000D01*
X155354000Y-92241675D01*
X155670635Y-92241675D01*
X155990275Y-93015263D01*
X156581624Y-93607645D01*
X157354652Y-93928634D01*
X158191675Y-93929365D01*
X158965263Y-93609725D01*
X159557645Y-93018376D01*
X159878634Y-92245348D01*
X159879365Y-91408325D01*
X159559725Y-90634737D01*
X158968376Y-90042355D01*
X158195348Y-89721366D01*
X157358325Y-89720635D01*
X156584737Y-90040275D01*
X155992355Y-90631624D01*
X155671366Y-91404652D01*
X155670635Y-92241675D01*
X155354000Y-92241675D01*
X155354000Y-88162459D01*
X159795705Y-88162459D01*
X160054577Y-88788977D01*
X160533501Y-89268738D01*
X161159567Y-89528703D01*
X161837459Y-89529295D01*
X162463977Y-89270423D01*
X162943738Y-88791499D01*
X162965566Y-88738930D01*
X165385835Y-88738930D01*
X165530767Y-89089692D01*
X165798897Y-89358290D01*
X166149405Y-89503834D01*
X166528930Y-89504165D01*
X166879692Y-89359233D01*
X167148290Y-89091103D01*
X167293834Y-88740595D01*
X167294165Y-88361070D01*
X167149233Y-88010308D01*
X166881103Y-87741710D01*
X166530595Y-87596166D01*
X166151070Y-87595835D01*
X165800308Y-87740767D01*
X165531710Y-88008897D01*
X165386166Y-88359405D01*
X165385835Y-88738930D01*
X162965566Y-88738930D01*
X163203703Y-88165433D01*
X163204295Y-87487541D01*
X162945423Y-86861023D01*
X162466499Y-86381262D01*
X161840433Y-86121297D01*
X161162541Y-86120705D01*
X160536023Y-86379577D01*
X160056262Y-86858501D01*
X159796297Y-87484567D01*
X159795705Y-88162459D01*
X155354000Y-88162459D01*
X155354000Y-55162459D01*
X159845705Y-55162459D01*
X160104577Y-55788977D01*
X160583501Y-56268738D01*
X161209567Y-56528703D01*
X161887459Y-56529295D01*
X162513977Y-56270423D01*
X162993738Y-55791499D01*
X163253703Y-55165433D01*
X163254295Y-54487541D01*
X162995423Y-53861023D01*
X162516499Y-53381262D01*
X161890433Y-53121297D01*
X161212541Y-53120705D01*
X160586023Y-53379577D01*
X160106262Y-53858501D01*
X159846297Y-54484567D01*
X159845705Y-55162459D01*
X155354000Y-55162459D01*
X155354000Y-51241675D01*
X155670635Y-51241675D01*
X155990275Y-52015263D01*
X156581624Y-52607645D01*
X157354652Y-52928634D01*
X158191675Y-52929365D01*
X158965263Y-52609725D01*
X159557645Y-52018376D01*
X159878634Y-51245348D01*
X159879365Y-50408325D01*
X159559725Y-49634737D01*
X158968376Y-49042355D01*
X158195348Y-48721366D01*
X157358325Y-48720635D01*
X156584737Y-49040275D01*
X155992355Y-49631624D01*
X155671366Y-50404652D01*
X155670635Y-51241675D01*
X155354000Y-51241675D01*
X155354000Y-48404000D01*
X178829683Y-48404000D01*
X178166841Y-49066841D01*
X178166841Y-49066841D01*
G37*
X178166841Y-49066841D02*
X178003395Y-49311457D01*
X177945999Y-49600000D01*
X177946000Y-49600005D01*
X177946000Y-52387683D01*
X176210682Y-54123000D01*
X174694600Y-54123000D01*
X174683730Y-54065229D01*
X174573348Y-53893691D01*
X174404925Y-53778613D01*
X174205000Y-53738127D01*
X172705000Y-53738127D01*
X172518229Y-53773270D01*
X172346691Y-53883652D01*
X172231613Y-54052075D01*
X172205509Y-54180978D01*
X172183730Y-54065229D01*
X172073348Y-53893691D01*
X171904925Y-53778613D01*
X171705000Y-53738127D01*
X171278605Y-53738127D01*
X171393842Y-53460606D01*
X171394156Y-53100972D01*
X171256820Y-52768594D01*
X171002743Y-52514073D01*
X170670606Y-52376158D01*
X170310972Y-52375844D01*
X169978594Y-52513180D01*
X169940708Y-52551000D01*
X167281962Y-52551000D01*
X166074455Y-51343493D01*
X166218210Y-51128348D01*
X166261049Y-51243586D01*
X166688081Y-51703247D01*
X167258511Y-51964500D01*
X167374503Y-51987572D01*
X167626000Y-51818494D01*
X167626000Y-50404000D01*
X167606000Y-50404000D01*
X167606000Y-50396000D01*
X167626000Y-50396000D01*
X167626000Y-48981506D01*
X167634000Y-48981506D01*
X167634000Y-50396000D01*
X167654000Y-50396000D01*
X167654000Y-50404000D01*
X167634000Y-50404000D01*
X167634000Y-51818494D01*
X167885497Y-51987572D01*
X168001489Y-51964500D01*
X168571919Y-51703247D01*
X168998951Y-51243586D01*
X169041790Y-51128348D01*
X169212577Y-51383949D01*
X169651847Y-51677459D01*
X170170000Y-51780526D01*
X170688153Y-51677459D01*
X171127423Y-51383949D01*
X171420933Y-50944679D01*
X171440000Y-50848823D01*
X171459067Y-50944679D01*
X171752577Y-51383949D01*
X172191847Y-51677459D01*
X172710000Y-51780526D01*
X173228153Y-51677459D01*
X173667423Y-51383949D01*
X173960933Y-50944679D01*
X173980000Y-50848823D01*
X173999067Y-50944679D01*
X174292577Y-51383949D01*
X174731847Y-51677459D01*
X175250000Y-51780526D01*
X175768153Y-51677459D01*
X176207423Y-51383949D01*
X176500933Y-50944679D01*
X176604000Y-50426526D01*
X176604000Y-50373474D01*
X176500933Y-49855321D01*
X176207423Y-49416051D01*
X175768153Y-49122541D01*
X175250000Y-49019474D01*
X174731847Y-49122541D01*
X174292577Y-49416051D01*
X173999067Y-49855321D01*
X173980000Y-49951177D01*
X173960933Y-49855321D01*
X173667423Y-49416051D01*
X173228153Y-49122541D01*
X172710000Y-49019474D01*
X172191847Y-49122541D01*
X171752577Y-49416051D01*
X171459067Y-49855321D01*
X171440000Y-49951177D01*
X171420933Y-49855321D01*
X171127423Y-49416051D01*
X170688153Y-49122541D01*
X170170000Y-49019474D01*
X169651847Y-49122541D01*
X169212577Y-49416051D01*
X169041790Y-49671652D01*
X168998951Y-49556414D01*
X168571919Y-49096753D01*
X168001489Y-48835500D01*
X167885497Y-48812428D01*
X167634000Y-48981506D01*
X167626000Y-48981506D01*
X167374503Y-48812428D01*
X167258511Y-48835500D01*
X166688081Y-49096753D01*
X166261049Y-49556414D01*
X166218210Y-49671652D01*
X166047423Y-49416051D01*
X165608153Y-49122541D01*
X165090000Y-49019474D01*
X164571847Y-49122541D01*
X164132577Y-49416051D01*
X163913873Y-49743366D01*
X163913873Y-49550000D01*
X163878730Y-49363229D01*
X163768348Y-49191691D01*
X163599925Y-49076613D01*
X163400000Y-49036127D01*
X161700000Y-49036127D01*
X161513229Y-49071270D01*
X161341691Y-49181652D01*
X161226613Y-49350075D01*
X161186127Y-49550000D01*
X161186127Y-51250000D01*
X161221270Y-51436771D01*
X161331652Y-51608309D01*
X161500075Y-51723387D01*
X161700000Y-51763873D01*
X163400000Y-51763873D01*
X163586771Y-51728730D01*
X163758309Y-51618348D01*
X163873387Y-51449925D01*
X163913873Y-51250000D01*
X163913873Y-51056634D01*
X164132577Y-51383949D01*
X164394625Y-51559043D01*
X164416492Y-51668976D01*
X164574519Y-51905481D01*
X165927790Y-53258752D01*
X165850308Y-53290767D01*
X165581710Y-53558897D01*
X165436166Y-53909405D01*
X165435835Y-54288930D01*
X165580767Y-54639692D01*
X165848897Y-54908290D01*
X166199405Y-55053834D01*
X166578930Y-55054165D01*
X166929692Y-54909233D01*
X167198290Y-54641103D01*
X167343834Y-54290595D01*
X167344080Y-54009000D01*
X169761045Y-54009000D01*
X169731613Y-54052075D01*
X169691127Y-54252000D01*
X169691127Y-55502000D01*
X169726270Y-55688771D01*
X169836652Y-55860309D01*
X170005075Y-55975387D01*
X170181520Y-56011118D01*
X170181520Y-56012684D01*
X170122133Y-56099600D01*
X170081647Y-56299525D01*
X170081647Y-56607500D01*
X162738505Y-56607500D01*
X162738500Y-56607499D01*
X162449957Y-56664895D01*
X162205341Y-56828341D01*
X162205339Y-56828344D01*
X161466841Y-57566841D01*
X161303395Y-57811457D01*
X161245999Y-58100000D01*
X161246000Y-58100005D01*
X161246000Y-61225000D01*
X159803337Y-61225000D01*
X159612743Y-61034073D01*
X159280606Y-60896158D01*
X158920972Y-60895844D01*
X158588594Y-61033180D01*
X158334073Y-61287257D01*
X158196158Y-61619394D01*
X158195844Y-61979028D01*
X158333180Y-62311406D01*
X158587257Y-62565927D01*
X158919394Y-62703842D01*
X158937540Y-62703858D01*
X160706906Y-64473224D01*
X158890065Y-66290065D01*
X158672425Y-66615786D01*
X158596000Y-67000000D01*
X158596000Y-81300000D01*
X158672425Y-81684214D01*
X158890065Y-82009935D01*
X160515065Y-83634935D01*
X160840786Y-83852575D01*
X161225000Y-83929000D01*
X162959722Y-83929000D01*
X163060379Y-84029833D01*
X163539480Y-84228773D01*
X164058244Y-84229226D01*
X164306697Y-84126567D01*
X164815065Y-84634936D01*
X165037095Y-84783291D01*
X165061270Y-84911771D01*
X165171652Y-85083309D01*
X165340075Y-85198387D01*
X165540000Y-85238873D01*
X167140000Y-85238873D01*
X167326771Y-85203730D01*
X167498309Y-85093348D01*
X167613387Y-84924925D01*
X167653873Y-84725000D01*
X167653873Y-83125000D01*
X167618730Y-82938229D01*
X167508348Y-82766691D01*
X167409941Y-82699452D01*
X167430429Y-82679000D01*
X168474995Y-82679000D01*
X168475000Y-82679001D01*
X168763543Y-82621605D01*
X169008159Y-82458159D01*
X171933156Y-79533161D01*
X171933159Y-79533159D01*
X172096605Y-79288543D01*
X172108494Y-79228773D01*
X172154001Y-79000000D01*
X172154000Y-78999995D01*
X172154000Y-78220318D01*
X172866839Y-78933156D01*
X172866841Y-78933159D01*
X173011525Y-79029833D01*
X173111456Y-79096605D01*
X173363747Y-79146790D01*
X173371270Y-79186771D01*
X173481652Y-79358309D01*
X173650075Y-79473387D01*
X173778978Y-79499491D01*
X173663229Y-79521270D01*
X173491691Y-79631652D01*
X173376613Y-79800075D01*
X173336127Y-80000000D01*
X173336127Y-81200000D01*
X173371270Y-81386771D01*
X173481652Y-81558309D01*
X173571000Y-81619358D01*
X173571000Y-82720998D01*
X173367243Y-83211700D01*
X173366759Y-83765869D01*
X173578384Y-84278040D01*
X173969899Y-84670239D01*
X174481700Y-84882757D01*
X175035869Y-84883241D01*
X175548040Y-84671616D01*
X175571000Y-84648696D01*
X175571000Y-89268038D01*
X175097297Y-89741741D01*
X175038300Y-89717243D01*
X174484131Y-89716759D01*
X173971960Y-89928384D01*
X173579761Y-90319899D01*
X173367243Y-90831700D01*
X173366759Y-91385869D01*
X173578384Y-91898040D01*
X173969899Y-92290239D01*
X174481700Y-92502757D01*
X175035869Y-92503241D01*
X175548040Y-92291616D01*
X175673625Y-92166249D01*
X176249408Y-92166249D01*
X176316190Y-92470903D01*
X176911873Y-92743798D01*
X177566644Y-92767962D01*
X178180822Y-92539716D01*
X178283810Y-92470903D01*
X178350592Y-92166249D01*
X177300000Y-91115657D01*
X176249408Y-92166249D01*
X175673625Y-92166249D01*
X175864622Y-91975586D01*
X175870284Y-91990822D01*
X175939097Y-92093810D01*
X176243751Y-92160592D01*
X177294343Y-91110000D01*
X177280201Y-91095858D01*
X177285858Y-91090201D01*
X177300000Y-91104343D01*
X177314142Y-91090201D01*
X177319799Y-91095858D01*
X177305657Y-91110000D01*
X178356249Y-92160592D01*
X178660903Y-92093810D01*
X178721585Y-91961351D01*
X179049899Y-92290239D01*
X179561700Y-92502757D01*
X180115869Y-92503241D01*
X180628040Y-92291616D01*
X181020239Y-91900101D01*
X181232757Y-91388300D01*
X181233241Y-90834131D01*
X181021616Y-90321960D01*
X180630101Y-89929761D01*
X180118300Y-89717243D01*
X179564131Y-89716759D01*
X179502986Y-89742024D01*
X179029000Y-89268038D01*
X179029000Y-85849606D01*
X179065927Y-85812743D01*
X179203842Y-85480606D01*
X179204156Y-85120972D01*
X179066820Y-84788594D01*
X179029000Y-84750708D01*
X179029000Y-84649303D01*
X179049899Y-84670239D01*
X179561700Y-84882757D01*
X180115869Y-84883241D01*
X180628040Y-84671616D01*
X181020239Y-84280101D01*
X181232757Y-83768300D01*
X181233241Y-83214131D01*
X181029000Y-82719831D01*
X181029000Y-81619382D01*
X181108309Y-81568348D01*
X181223387Y-81399925D01*
X181263873Y-81200000D01*
X181263873Y-80000000D01*
X181228730Y-79813229D01*
X181118348Y-79641691D01*
X180949925Y-79526613D01*
X180821022Y-79500509D01*
X180936771Y-79478730D01*
X181108309Y-79368348D01*
X181223387Y-79199925D01*
X181263873Y-79000000D01*
X181263873Y-77800000D01*
X181255218Y-77754000D01*
X183158655Y-77754000D01*
X183150000Y-77800000D01*
X183150000Y-94246000D01*
X155354000Y-94246000D01*
X155354000Y-92241675D01*
X155670635Y-92241675D01*
X155990275Y-93015263D01*
X156581624Y-93607645D01*
X157354652Y-93928634D01*
X158191675Y-93929365D01*
X158965263Y-93609725D01*
X159557645Y-93018376D01*
X159878634Y-92245348D01*
X159879365Y-91408325D01*
X159559725Y-90634737D01*
X158968376Y-90042355D01*
X158195348Y-89721366D01*
X157358325Y-89720635D01*
X156584737Y-90040275D01*
X155992355Y-90631624D01*
X155671366Y-91404652D01*
X155670635Y-92241675D01*
X155354000Y-92241675D01*
X155354000Y-88162459D01*
X159795705Y-88162459D01*
X160054577Y-88788977D01*
X160533501Y-89268738D01*
X161159567Y-89528703D01*
X161837459Y-89529295D01*
X162463977Y-89270423D01*
X162943738Y-88791499D01*
X162965566Y-88738930D01*
X165385835Y-88738930D01*
X165530767Y-89089692D01*
X165798897Y-89358290D01*
X166149405Y-89503834D01*
X166528930Y-89504165D01*
X166879692Y-89359233D01*
X167148290Y-89091103D01*
X167293834Y-88740595D01*
X167294165Y-88361070D01*
X167149233Y-88010308D01*
X166881103Y-87741710D01*
X166530595Y-87596166D01*
X166151070Y-87595835D01*
X165800308Y-87740767D01*
X165531710Y-88008897D01*
X165386166Y-88359405D01*
X165385835Y-88738930D01*
X162965566Y-88738930D01*
X163203703Y-88165433D01*
X163204295Y-87487541D01*
X162945423Y-86861023D01*
X162466499Y-86381262D01*
X161840433Y-86121297D01*
X161162541Y-86120705D01*
X160536023Y-86379577D01*
X160056262Y-86858501D01*
X159796297Y-87484567D01*
X159795705Y-88162459D01*
X155354000Y-88162459D01*
X155354000Y-55162459D01*
X159845705Y-55162459D01*
X160104577Y-55788977D01*
X160583501Y-56268738D01*
X161209567Y-56528703D01*
X161887459Y-56529295D01*
X162513977Y-56270423D01*
X162993738Y-55791499D01*
X163253703Y-55165433D01*
X163254295Y-54487541D01*
X162995423Y-53861023D01*
X162516499Y-53381262D01*
X161890433Y-53121297D01*
X161212541Y-53120705D01*
X160586023Y-53379577D01*
X160106262Y-53858501D01*
X159846297Y-54484567D01*
X159845705Y-55162459D01*
X155354000Y-55162459D01*
X155354000Y-51241675D01*
X155670635Y-51241675D01*
X155990275Y-52015263D01*
X156581624Y-52607645D01*
X157354652Y-52928634D01*
X158191675Y-52929365D01*
X158965263Y-52609725D01*
X159557645Y-52018376D01*
X159878634Y-51245348D01*
X159879365Y-50408325D01*
X159559725Y-49634737D01*
X158968376Y-49042355D01*
X158195348Y-48721366D01*
X157358325Y-48720635D01*
X156584737Y-49040275D01*
X155992355Y-49631624D01*
X155671366Y-50404652D01*
X155670635Y-51241675D01*
X155354000Y-51241675D01*
X155354000Y-48404000D01*
X178829683Y-48404000D01*
X178166841Y-49066841D01*
G36*
X163110379Y-65829833D02*
X163589480Y-66028773D01*
X164108244Y-66029226D01*
X164125157Y-66022237D01*
X164236456Y-66096605D01*
X164525000Y-66154001D01*
X164525005Y-66154000D01*
X165076127Y-66154000D01*
X165076127Y-66525000D01*
X165111270Y-66711771D01*
X165221652Y-66883309D01*
X165390075Y-66998387D01*
X165590000Y-67038873D01*
X167190000Y-67038873D01*
X167246000Y-67028336D01*
X167246000Y-69923493D01*
X167199233Y-69810308D01*
X166931103Y-69541710D01*
X166580595Y-69396166D01*
X166201070Y-69395835D01*
X165850308Y-69540767D01*
X165581710Y-69808897D01*
X165436166Y-70159405D01*
X165435835Y-70538930D01*
X165580767Y-70889692D01*
X165848897Y-71158290D01*
X166199405Y-71303834D01*
X166578930Y-71304165D01*
X166929692Y-71159233D01*
X167198290Y-70891103D01*
X167246000Y-70776205D01*
X167246000Y-71994502D01*
X167149233Y-71760308D01*
X166881103Y-71491710D01*
X166530595Y-71346166D01*
X166151070Y-71345835D01*
X165800308Y-71490767D01*
X165531710Y-71758897D01*
X165386166Y-72109405D01*
X165385835Y-72488930D01*
X165530767Y-72839692D01*
X165656112Y-72965256D01*
X165634073Y-72987257D01*
X165496158Y-73319394D01*
X165495844Y-73679028D01*
X165496659Y-73681000D01*
X164865000Y-73681000D01*
X164576456Y-73738395D01*
X164478477Y-73803862D01*
X164331841Y-73901841D01*
X164331839Y-73901844D01*
X163266841Y-74966841D01*
X163103395Y-75211457D01*
X163045999Y-75500000D01*
X163046000Y-75500005D01*
X163046000Y-75835158D01*
X162695167Y-76185379D01*
X162496227Y-76664480D01*
X162495774Y-77183244D01*
X162693878Y-77662692D01*
X162837506Y-77806571D01*
X162813574Y-77932917D01*
X163800000Y-78919343D01*
X164786426Y-77932917D01*
X164762516Y-77806690D01*
X164904833Y-77664621D01*
X165103773Y-77185520D01*
X165104226Y-76666756D01*
X164906122Y-76187308D01*
X164554000Y-75834571D01*
X164554000Y-75812318D01*
X165177317Y-75189000D01*
X168840630Y-75189000D01*
X168702661Y-75395486D01*
X168641095Y-75705000D01*
X168702661Y-76014514D01*
X168877987Y-76276908D01*
X169140381Y-76452234D01*
X169449895Y-76513800D01*
X170362105Y-76513800D01*
X170668545Y-76452846D01*
X170634073Y-76487257D01*
X170496158Y-76819394D01*
X170495844Y-77179028D01*
X170633180Y-77511406D01*
X170646000Y-77524248D01*
X170646000Y-78687683D01*
X168162682Y-81171000D01*
X167429842Y-81171000D01*
X167302494Y-81043429D01*
X167326426Y-80917083D01*
X166340000Y-79930657D01*
X166325858Y-79944799D01*
X166320201Y-79939142D01*
X166334343Y-79925000D01*
X166345657Y-79925000D01*
X167332083Y-80911426D01*
X167627489Y-80855471D01*
X167885561Y-80291942D01*
X167908335Y-79672550D01*
X167692344Y-79091591D01*
X167627489Y-78994529D01*
X167332083Y-78938574D01*
X166345657Y-79925000D01*
X166334343Y-79925000D01*
X166320201Y-79910858D01*
X166325858Y-79905201D01*
X166340000Y-79919343D01*
X167326426Y-78932917D01*
X167302516Y-78806690D01*
X167444833Y-78664621D01*
X167643773Y-78185520D01*
X167644226Y-77666756D01*
X167446122Y-77187308D01*
X167079621Y-76820167D01*
X166600520Y-76621227D01*
X166081756Y-76620774D01*
X165602308Y-76818878D01*
X165235167Y-77185379D01*
X165036227Y-77664480D01*
X165035947Y-77984766D01*
X164792083Y-77938574D01*
X163805657Y-78925000D01*
X163819799Y-78939142D01*
X163814142Y-78944799D01*
X163800000Y-78930657D01*
X162813574Y-79917083D01*
X162837484Y-80043310D01*
X162695167Y-80185379D01*
X162496227Y-80664480D01*
X162495774Y-81183244D01*
X162693878Y-81662692D01*
X162951736Y-81921000D01*
X161640870Y-81921000D01*
X160604000Y-80884130D01*
X160604000Y-79177450D01*
X162231665Y-79177450D01*
X162447656Y-79758409D01*
X162512511Y-79855471D01*
X162807917Y-79911426D01*
X163794343Y-78925000D01*
X162807917Y-77938574D01*
X162512511Y-77994529D01*
X162254439Y-78558058D01*
X162231665Y-79177450D01*
X160604000Y-79177450D01*
X160604000Y-74498012D01*
X161159567Y-74728703D01*
X161837459Y-74729295D01*
X162463977Y-74470423D01*
X162943738Y-73991499D01*
X163203703Y-73365433D01*
X163204295Y-72687541D01*
X162945423Y-72061023D01*
X162466499Y-71581262D01*
X161859636Y-71329271D01*
X161887459Y-71329295D01*
X162513977Y-71070423D01*
X162993738Y-70591499D01*
X163253703Y-69965433D01*
X163254295Y-69287541D01*
X162995423Y-68661023D01*
X162516499Y-68181262D01*
X161890433Y-67921297D01*
X161212541Y-67920705D01*
X160604000Y-68172149D01*
X160604000Y-67415870D01*
X162290870Y-65729000D01*
X163009722Y-65729000D01*
X163110379Y-65829833D01*
X163110379Y-65829833D01*
G37*
X163110379Y-65829833D02*
X163589480Y-66028773D01*
X164108244Y-66029226D01*
X164125157Y-66022237D01*
X164236456Y-66096605D01*
X164525000Y-66154001D01*
X164525005Y-66154000D01*
X165076127Y-66154000D01*
X165076127Y-66525000D01*
X165111270Y-66711771D01*
X165221652Y-66883309D01*
X165390075Y-66998387D01*
X165590000Y-67038873D01*
X167190000Y-67038873D01*
X167246000Y-67028336D01*
X167246000Y-69923493D01*
X167199233Y-69810308D01*
X166931103Y-69541710D01*
X166580595Y-69396166D01*
X166201070Y-69395835D01*
X165850308Y-69540767D01*
X165581710Y-69808897D01*
X165436166Y-70159405D01*
X165435835Y-70538930D01*
X165580767Y-70889692D01*
X165848897Y-71158290D01*
X166199405Y-71303834D01*
X166578930Y-71304165D01*
X166929692Y-71159233D01*
X167198290Y-70891103D01*
X167246000Y-70776205D01*
X167246000Y-71994502D01*
X167149233Y-71760308D01*
X166881103Y-71491710D01*
X166530595Y-71346166D01*
X166151070Y-71345835D01*
X165800308Y-71490767D01*
X165531710Y-71758897D01*
X165386166Y-72109405D01*
X165385835Y-72488930D01*
X165530767Y-72839692D01*
X165656112Y-72965256D01*
X165634073Y-72987257D01*
X165496158Y-73319394D01*
X165495844Y-73679028D01*
X165496659Y-73681000D01*
X164865000Y-73681000D01*
X164576456Y-73738395D01*
X164478477Y-73803862D01*
X164331841Y-73901841D01*
X164331839Y-73901844D01*
X163266841Y-74966841D01*
X163103395Y-75211457D01*
X163045999Y-75500000D01*
X163046000Y-75500005D01*
X163046000Y-75835158D01*
X162695167Y-76185379D01*
X162496227Y-76664480D01*
X162495774Y-77183244D01*
X162693878Y-77662692D01*
X162837506Y-77806571D01*
X162813574Y-77932917D01*
X163800000Y-78919343D01*
X164786426Y-77932917D01*
X164762516Y-77806690D01*
X164904833Y-77664621D01*
X165103773Y-77185520D01*
X165104226Y-76666756D01*
X164906122Y-76187308D01*
X164554000Y-75834571D01*
X164554000Y-75812318D01*
X165177317Y-75189000D01*
X168840630Y-75189000D01*
X168702661Y-75395486D01*
X168641095Y-75705000D01*
X168702661Y-76014514D01*
X168877987Y-76276908D01*
X169140381Y-76452234D01*
X169449895Y-76513800D01*
X170362105Y-76513800D01*
X170668545Y-76452846D01*
X170634073Y-76487257D01*
X170496158Y-76819394D01*
X170495844Y-77179028D01*
X170633180Y-77511406D01*
X170646000Y-77524248D01*
X170646000Y-78687683D01*
X168162682Y-81171000D01*
X167429842Y-81171000D01*
X167302494Y-81043429D01*
X167326426Y-80917083D01*
X166340000Y-79930657D01*
X166325858Y-79944799D01*
X166320201Y-79939142D01*
X166334343Y-79925000D01*
X166345657Y-79925000D01*
X167332083Y-80911426D01*
X167627489Y-80855471D01*
X167885561Y-80291942D01*
X167908335Y-79672550D01*
X167692344Y-79091591D01*
X167627489Y-78994529D01*
X167332083Y-78938574D01*
X166345657Y-79925000D01*
X166334343Y-79925000D01*
X166320201Y-79910858D01*
X166325858Y-79905201D01*
X166340000Y-79919343D01*
X167326426Y-78932917D01*
X167302516Y-78806690D01*
X167444833Y-78664621D01*
X167643773Y-78185520D01*
X167644226Y-77666756D01*
X167446122Y-77187308D01*
X167079621Y-76820167D01*
X166600520Y-76621227D01*
X166081756Y-76620774D01*
X165602308Y-76818878D01*
X165235167Y-77185379D01*
X165036227Y-77664480D01*
X165035947Y-77984766D01*
X164792083Y-77938574D01*
X163805657Y-78925000D01*
X163819799Y-78939142D01*
X163814142Y-78944799D01*
X163800000Y-78930657D01*
X162813574Y-79917083D01*
X162837484Y-80043310D01*
X162695167Y-80185379D01*
X162496227Y-80664480D01*
X162495774Y-81183244D01*
X162693878Y-81662692D01*
X162951736Y-81921000D01*
X161640870Y-81921000D01*
X160604000Y-80884130D01*
X160604000Y-79177450D01*
X162231665Y-79177450D01*
X162447656Y-79758409D01*
X162512511Y-79855471D01*
X162807917Y-79911426D01*
X163794343Y-78925000D01*
X162807917Y-77938574D01*
X162512511Y-77994529D01*
X162254439Y-78558058D01*
X162231665Y-79177450D01*
X160604000Y-79177450D01*
X160604000Y-74498012D01*
X161159567Y-74728703D01*
X161837459Y-74729295D01*
X162463977Y-74470423D01*
X162943738Y-73991499D01*
X163203703Y-73365433D01*
X163204295Y-72687541D01*
X162945423Y-72061023D01*
X162466499Y-71581262D01*
X161859636Y-71329271D01*
X161887459Y-71329295D01*
X162513977Y-71070423D01*
X162993738Y-70591499D01*
X163253703Y-69965433D01*
X163254295Y-69287541D01*
X162995423Y-68661023D01*
X162516499Y-68181262D01*
X161890433Y-67921297D01*
X161212541Y-67920705D01*
X160604000Y-68172149D01*
X160604000Y-67415870D01*
X162290870Y-65729000D01*
X163009722Y-65729000D01*
X163110379Y-65829833D01*
G36*
X191350000Y-71446000D02*
X190587317Y-71446000D01*
X189979000Y-70837682D01*
X189979000Y-65649649D01*
X189990927Y-65637743D01*
X190128842Y-65305606D01*
X190129156Y-64945972D01*
X189991820Y-64613594D01*
X189737743Y-64359073D01*
X189405606Y-64221158D01*
X189045972Y-64220844D01*
X188713594Y-64358180D01*
X188629000Y-64442626D01*
X188629000Y-61426962D01*
X190515481Y-59540481D01*
X190673508Y-59303977D01*
X190729000Y-59025000D01*
X190729000Y-58994382D01*
X190808309Y-58943348D01*
X190923387Y-58774925D01*
X190963873Y-58575000D01*
X190963873Y-57375000D01*
X190928730Y-57188229D01*
X190818348Y-57016691D01*
X190649925Y-56901613D01*
X190521022Y-56875509D01*
X190636771Y-56853730D01*
X190808309Y-56743348D01*
X190923387Y-56574925D01*
X190963873Y-56375000D01*
X190963873Y-55175000D01*
X190928730Y-54988229D01*
X190818348Y-54816691D01*
X190754000Y-54772724D01*
X190754000Y-54049606D01*
X190790927Y-54012743D01*
X190928842Y-53680606D01*
X190929156Y-53320972D01*
X190791820Y-52988594D01*
X190754000Y-52950708D01*
X190754000Y-52257203D01*
X190960380Y-52051182D01*
X191128808Y-51645563D01*
X191129192Y-51206364D01*
X190961472Y-50800451D01*
X190651182Y-50489620D01*
X190245563Y-50321192D01*
X189806364Y-50320808D01*
X189400451Y-50488528D01*
X189089620Y-50798818D01*
X188921192Y-51204437D01*
X188920808Y-51643636D01*
X189088528Y-52049549D01*
X189296000Y-52257383D01*
X189296000Y-52950394D01*
X189259073Y-52987257D01*
X189121158Y-53319394D01*
X189120844Y-53679028D01*
X189258180Y-54011406D01*
X189296000Y-54049292D01*
X189296000Y-54739531D01*
X189191691Y-54806652D01*
X189076613Y-54975075D01*
X189036127Y-55175000D01*
X189036127Y-56375000D01*
X189071270Y-56561771D01*
X189181652Y-56733309D01*
X189350075Y-56848387D01*
X189478978Y-56874491D01*
X189363229Y-56896270D01*
X189191691Y-57006652D01*
X189076613Y-57175075D01*
X189036127Y-57375000D01*
X189036127Y-58575000D01*
X189071270Y-58761771D01*
X189134306Y-58859732D01*
X187384519Y-60609519D01*
X187226492Y-60846024D01*
X187171000Y-61125000D01*
X187171000Y-67905696D01*
X187088229Y-67921270D01*
X186916691Y-68031652D01*
X186801613Y-68200075D01*
X186800715Y-68204508D01*
X186780606Y-68196158D01*
X186420972Y-68195844D01*
X186088594Y-68333180D01*
X185834073Y-68587257D01*
X185696158Y-68919394D01*
X185695844Y-69279028D01*
X185833180Y-69611406D01*
X186087257Y-69865927D01*
X186419394Y-70003842D01*
X186779028Y-70004156D01*
X186780603Y-70003505D01*
X186796270Y-70086771D01*
X186906652Y-70258309D01*
X187075075Y-70373387D01*
X187275000Y-70413873D01*
X188471000Y-70413873D01*
X188471000Y-71149995D01*
X188470999Y-71150000D01*
X188528395Y-71438543D01*
X188691841Y-71683159D01*
X189741839Y-72733156D01*
X189741841Y-72733159D01*
X189888477Y-72831138D01*
X189986456Y-72896605D01*
X190275000Y-72954001D01*
X190275005Y-72954000D01*
X194150000Y-72954000D01*
X194150000Y-75508020D01*
X193880606Y-75396158D01*
X193520972Y-75395844D01*
X193188594Y-75533180D01*
X192934073Y-75787257D01*
X192796158Y-76119394D01*
X192796142Y-76137540D01*
X192687682Y-76246000D01*
X180325000Y-76246000D01*
X180325000Y-75268507D01*
X180338873Y-75200000D01*
X180338873Y-73717458D01*
X180387257Y-73765927D01*
X180719394Y-73903842D01*
X181079028Y-73904156D01*
X181411406Y-73766820D01*
X181449292Y-73729000D01*
X184350394Y-73729000D01*
X184387257Y-73765927D01*
X184719394Y-73903842D01*
X185079028Y-73904156D01*
X185411406Y-73766820D01*
X185665927Y-73512743D01*
X185803842Y-73180606D01*
X185804156Y-72820972D01*
X185666820Y-72488594D01*
X185412743Y-72234073D01*
X185080606Y-72096158D01*
X184720972Y-72095844D01*
X184388594Y-72233180D01*
X184350708Y-72271000D01*
X181449606Y-72271000D01*
X181412743Y-72234073D01*
X181080606Y-72096158D01*
X180720972Y-72095844D01*
X180388594Y-72233180D01*
X180134073Y-72487257D01*
X179996158Y-72819394D01*
X179995844Y-73179028D01*
X180014646Y-73224531D01*
X179825000Y-73186127D01*
X178575000Y-73186127D01*
X178388229Y-73221270D01*
X178216691Y-73331652D01*
X178101613Y-73500075D01*
X178064975Y-73681000D01*
X176225604Y-73681000D01*
X175950105Y-73626200D01*
X175037895Y-73626200D01*
X174762396Y-73681000D01*
X173747317Y-73681000D01*
X173254000Y-73187682D01*
X173254000Y-70032437D01*
X173387257Y-70165927D01*
X173719394Y-70303842D01*
X174079028Y-70304156D01*
X174411406Y-70166820D01*
X174665927Y-69912743D01*
X174803842Y-69580606D01*
X174804156Y-69220972D01*
X174793692Y-69195648D01*
X176324880Y-69195648D01*
X176511651Y-69160505D01*
X176527976Y-69150000D01*
X177171000Y-69150000D01*
X177171000Y-70998038D01*
X177003038Y-71166000D01*
X176286908Y-71166000D01*
X176259619Y-71147766D01*
X175950105Y-71086200D01*
X175037895Y-71086200D01*
X174728381Y-71147766D01*
X174465987Y-71323092D01*
X174290661Y-71585486D01*
X174229095Y-71895000D01*
X174290661Y-72204514D01*
X174465987Y-72466908D01*
X174728381Y-72642234D01*
X175037895Y-72703800D01*
X175950105Y-72703800D01*
X176259619Y-72642234D01*
X176286908Y-72624000D01*
X177305000Y-72624000D01*
X177583976Y-72568508D01*
X177820481Y-72410481D01*
X178415481Y-71815481D01*
X178573508Y-71578976D01*
X178629000Y-71300000D01*
X178629000Y-68849606D01*
X178665927Y-68812743D01*
X178803842Y-68480606D01*
X178804100Y-68185062D01*
X179885890Y-69266852D01*
X179885844Y-69319028D01*
X180023180Y-69651406D01*
X180277257Y-69905927D01*
X180609394Y-70043842D01*
X180969028Y-70044156D01*
X181301406Y-69906820D01*
X181555927Y-69652743D01*
X181617720Y-69503928D01*
X181879028Y-69504156D01*
X182211406Y-69366820D01*
X182465927Y-69112743D01*
X182603842Y-68780606D01*
X182604156Y-68420972D01*
X182466820Y-68088594D01*
X182429000Y-68050708D01*
X182429000Y-65820000D01*
X182373508Y-65541024D01*
X182215481Y-65304519D01*
X180809000Y-63898038D01*
X180809000Y-60333725D01*
X180876023Y-60378508D01*
X181155000Y-60434000D01*
X181475618Y-60434000D01*
X181526652Y-60513309D01*
X181695075Y-60628387D01*
X181895000Y-60668873D01*
X183095000Y-60668873D01*
X183281771Y-60633730D01*
X183453309Y-60523348D01*
X183568387Y-60354925D01*
X183594491Y-60226022D01*
X183616270Y-60341771D01*
X183726652Y-60513309D01*
X183895075Y-60628387D01*
X184095000Y-60668873D01*
X185295000Y-60668873D01*
X185481771Y-60633730D01*
X185599195Y-60558169D01*
X185769394Y-60628842D01*
X186129028Y-60629156D01*
X186461406Y-60491820D01*
X186715927Y-60237743D01*
X186853842Y-59905606D01*
X186854156Y-59545972D01*
X186716820Y-59213594D01*
X186462743Y-58959073D01*
X186130606Y-58821158D01*
X185777313Y-58820850D01*
X185808873Y-58665000D01*
X185808873Y-57765000D01*
X185773730Y-57578229D01*
X185663348Y-57406691D01*
X185494925Y-57291613D01*
X185295000Y-57251127D01*
X184095000Y-57251127D01*
X183908229Y-57286270D01*
X183736691Y-57396652D01*
X183621613Y-57565075D01*
X183595509Y-57693978D01*
X183573730Y-57578229D01*
X183463348Y-57406691D01*
X183360994Y-57336755D01*
X183398842Y-57245606D01*
X183399156Y-56885972D01*
X183261820Y-56553594D01*
X183007743Y-56299073D01*
X182675606Y-56161158D01*
X182315972Y-56160844D01*
X181983594Y-56298180D01*
X181729073Y-56552257D01*
X181661471Y-56715061D01*
X181596820Y-56558594D01*
X181342743Y-56304073D01*
X181010606Y-56166158D01*
X180650972Y-56165844D01*
X180318594Y-56303180D01*
X180275033Y-56346665D01*
X180102743Y-56174073D01*
X179770606Y-56036158D01*
X179410972Y-56035844D01*
X179078594Y-56173180D01*
X178945086Y-56306455D01*
X178922743Y-56284073D01*
X178590606Y-56146158D01*
X178230972Y-56145844D01*
X177898594Y-56283180D01*
X177644073Y-56537257D01*
X177506158Y-56869394D01*
X177505844Y-57229028D01*
X177512005Y-57243938D01*
X177300606Y-57156158D01*
X176940972Y-57155844D01*
X176608594Y-57293180D01*
X176354073Y-57547257D01*
X176216158Y-57879394D01*
X176215844Y-58239028D01*
X176353180Y-58571406D01*
X176607257Y-58825927D01*
X176939394Y-58963842D01*
X176992927Y-58963889D01*
X177461000Y-59431961D01*
X177461000Y-63596054D01*
X177220972Y-63595844D01*
X176888594Y-63733180D01*
X176634073Y-63987257D01*
X176496158Y-64319394D01*
X176496142Y-64337540D01*
X176407682Y-64426000D01*
X176362647Y-64426000D01*
X176324880Y-64418352D01*
X174229000Y-64418352D01*
X174229000Y-58901602D01*
X174405520Y-58937348D01*
X175085520Y-58937348D01*
X175272291Y-58902205D01*
X175443829Y-58791823D01*
X175558907Y-58623400D01*
X175599393Y-58423475D01*
X175599393Y-56299525D01*
X175564250Y-56112754D01*
X175453868Y-55941216D01*
X175285445Y-55826138D01*
X175085520Y-55785652D01*
X174621179Y-55785652D01*
X174678387Y-55701925D01*
X174692750Y-55631000D01*
X176522995Y-55631000D01*
X176523000Y-55631001D01*
X176811543Y-55573605D01*
X177056159Y-55410159D01*
X179233156Y-53233161D01*
X179233159Y-53233159D01*
X179396605Y-52988543D01*
X179423810Y-52851776D01*
X179454001Y-52700000D01*
X179454000Y-52699995D01*
X179454000Y-52538873D01*
X180625000Y-52538873D01*
X180811771Y-52503730D01*
X180983309Y-52393348D01*
X181065614Y-52272890D01*
X181682767Y-52272890D01*
X181714389Y-52547516D01*
X182205661Y-52772277D01*
X182745550Y-52791927D01*
X183251862Y-52603475D01*
X183335611Y-52547516D01*
X183367233Y-52272890D01*
X182525000Y-51430657D01*
X181682767Y-52272890D01*
X181065614Y-52272890D01*
X181098387Y-52224925D01*
X181138873Y-52025000D01*
X181138873Y-50913873D01*
X181200000Y-50913873D01*
X181271634Y-50900394D01*
X181177723Y-51105661D01*
X181158073Y-51645550D01*
X181346525Y-52151862D01*
X181402484Y-52235611D01*
X181677110Y-52267233D01*
X182519343Y-51425000D01*
X182505201Y-51410858D01*
X182510858Y-51405201D01*
X182525000Y-51419343D01*
X182539142Y-51405201D01*
X182544799Y-51410858D01*
X182530657Y-51425000D01*
X183372890Y-52267233D01*
X183647516Y-52235611D01*
X183872277Y-51744339D01*
X183891927Y-51204450D01*
X183735153Y-50783248D01*
X183758309Y-50768348D01*
X183819358Y-50679000D01*
X184209647Y-50679000D01*
X184089620Y-50798818D01*
X183921192Y-51204437D01*
X183920808Y-51643636D01*
X184088528Y-52049549D01*
X184398818Y-52360380D01*
X184804437Y-52528808D01*
X185243636Y-52529192D01*
X185649549Y-52361472D01*
X185960380Y-52051182D01*
X186054299Y-51825000D01*
X186495746Y-51825000D01*
X186588528Y-52049549D01*
X186898818Y-52360380D01*
X187304437Y-52528808D01*
X187743636Y-52529192D01*
X188149549Y-52361472D01*
X188460380Y-52051182D01*
X188628808Y-51645563D01*
X188629192Y-51206364D01*
X188461472Y-50800451D01*
X188254000Y-50592617D01*
X188254000Y-49225000D01*
X188214538Y-49026613D01*
X188198508Y-48946023D01*
X188040481Y-48709519D01*
X187734962Y-48404000D01*
X191350000Y-48404000D01*
X191350000Y-71446000D01*
X191350000Y-71446000D01*
G37*
X191350000Y-71446000D02*
X190587317Y-71446000D01*
X189979000Y-70837682D01*
X189979000Y-65649649D01*
X189990927Y-65637743D01*
X190128842Y-65305606D01*
X190129156Y-64945972D01*
X189991820Y-64613594D01*
X189737743Y-64359073D01*
X189405606Y-64221158D01*
X189045972Y-64220844D01*
X188713594Y-64358180D01*
X188629000Y-64442626D01*
X188629000Y-61426962D01*
X190515481Y-59540481D01*
X190673508Y-59303977D01*
X190729000Y-59025000D01*
X190729000Y-58994382D01*
X190808309Y-58943348D01*
X190923387Y-58774925D01*
X190963873Y-58575000D01*
X190963873Y-57375000D01*
X190928730Y-57188229D01*
X190818348Y-57016691D01*
X190649925Y-56901613D01*
X190521022Y-56875509D01*
X190636771Y-56853730D01*
X190808309Y-56743348D01*
X190923387Y-56574925D01*
X190963873Y-56375000D01*
X190963873Y-55175000D01*
X190928730Y-54988229D01*
X190818348Y-54816691D01*
X190754000Y-54772724D01*
X190754000Y-54049606D01*
X190790927Y-54012743D01*
X190928842Y-53680606D01*
X190929156Y-53320972D01*
X190791820Y-52988594D01*
X190754000Y-52950708D01*
X190754000Y-52257203D01*
X190960380Y-52051182D01*
X191128808Y-51645563D01*
X191129192Y-51206364D01*
X190961472Y-50800451D01*
X190651182Y-50489620D01*
X190245563Y-50321192D01*
X189806364Y-50320808D01*
X189400451Y-50488528D01*
X189089620Y-50798818D01*
X188921192Y-51204437D01*
X188920808Y-51643636D01*
X189088528Y-52049549D01*
X189296000Y-52257383D01*
X189296000Y-52950394D01*
X189259073Y-52987257D01*
X189121158Y-53319394D01*
X189120844Y-53679028D01*
X189258180Y-54011406D01*
X189296000Y-54049292D01*
X189296000Y-54739531D01*
X189191691Y-54806652D01*
X189076613Y-54975075D01*
X189036127Y-55175000D01*
X189036127Y-56375000D01*
X189071270Y-56561771D01*
X189181652Y-56733309D01*
X189350075Y-56848387D01*
X189478978Y-56874491D01*
X189363229Y-56896270D01*
X189191691Y-57006652D01*
X189076613Y-57175075D01*
X189036127Y-57375000D01*
X189036127Y-58575000D01*
X189071270Y-58761771D01*
X189134306Y-58859732D01*
X187384519Y-60609519D01*
X187226492Y-60846024D01*
X187171000Y-61125000D01*
X187171000Y-67905696D01*
X187088229Y-67921270D01*
X186916691Y-68031652D01*
X186801613Y-68200075D01*
X186800715Y-68204508D01*
X186780606Y-68196158D01*
X186420972Y-68195844D01*
X186088594Y-68333180D01*
X185834073Y-68587257D01*
X185696158Y-68919394D01*
X185695844Y-69279028D01*
X185833180Y-69611406D01*
X186087257Y-69865927D01*
X186419394Y-70003842D01*
X186779028Y-70004156D01*
X186780603Y-70003505D01*
X186796270Y-70086771D01*
X186906652Y-70258309D01*
X187075075Y-70373387D01*
X187275000Y-70413873D01*
X188471000Y-70413873D01*
X188471000Y-71149995D01*
X188470999Y-71150000D01*
X188528395Y-71438543D01*
X188691841Y-71683159D01*
X189741839Y-72733156D01*
X189741841Y-72733159D01*
X189888477Y-72831138D01*
X189986456Y-72896605D01*
X190275000Y-72954001D01*
X190275005Y-72954000D01*
X194150000Y-72954000D01*
X194150000Y-75508020D01*
X193880606Y-75396158D01*
X193520972Y-75395844D01*
X193188594Y-75533180D01*
X192934073Y-75787257D01*
X192796158Y-76119394D01*
X192796142Y-76137540D01*
X192687682Y-76246000D01*
X180325000Y-76246000D01*
X180325000Y-75268507D01*
X180338873Y-75200000D01*
X180338873Y-73717458D01*
X180387257Y-73765927D01*
X180719394Y-73903842D01*
X181079028Y-73904156D01*
X181411406Y-73766820D01*
X181449292Y-73729000D01*
X184350394Y-73729000D01*
X184387257Y-73765927D01*
X184719394Y-73903842D01*
X185079028Y-73904156D01*
X185411406Y-73766820D01*
X185665927Y-73512743D01*
X185803842Y-73180606D01*
X185804156Y-72820972D01*
X185666820Y-72488594D01*
X185412743Y-72234073D01*
X185080606Y-72096158D01*
X184720972Y-72095844D01*
X184388594Y-72233180D01*
X184350708Y-72271000D01*
X181449606Y-72271000D01*
X181412743Y-72234073D01*
X181080606Y-72096158D01*
X180720972Y-72095844D01*
X180388594Y-72233180D01*
X180134073Y-72487257D01*
X179996158Y-72819394D01*
X179995844Y-73179028D01*
X180014646Y-73224531D01*
X179825000Y-73186127D01*
X178575000Y-73186127D01*
X178388229Y-73221270D01*
X178216691Y-73331652D01*
X178101613Y-73500075D01*
X178064975Y-73681000D01*
X176225604Y-73681000D01*
X175950105Y-73626200D01*
X175037895Y-73626200D01*
X174762396Y-73681000D01*
X173747317Y-73681000D01*
X173254000Y-73187682D01*
X173254000Y-70032437D01*
X173387257Y-70165927D01*
X173719394Y-70303842D01*
X174079028Y-70304156D01*
X174411406Y-70166820D01*
X174665927Y-69912743D01*
X174803842Y-69580606D01*
X174804156Y-69220972D01*
X174793692Y-69195648D01*
X176324880Y-69195648D01*
X176511651Y-69160505D01*
X176527976Y-69150000D01*
X177171000Y-69150000D01*
X177171000Y-70998038D01*
X177003038Y-71166000D01*
X176286908Y-71166000D01*
X176259619Y-71147766D01*
X175950105Y-71086200D01*
X175037895Y-71086200D01*
X174728381Y-71147766D01*
X174465987Y-71323092D01*
X174290661Y-71585486D01*
X174229095Y-71895000D01*
X174290661Y-72204514D01*
X174465987Y-72466908D01*
X174728381Y-72642234D01*
X175037895Y-72703800D01*
X175950105Y-72703800D01*
X176259619Y-72642234D01*
X176286908Y-72624000D01*
X177305000Y-72624000D01*
X177583976Y-72568508D01*
X177820481Y-72410481D01*
X178415481Y-71815481D01*
X178573508Y-71578976D01*
X178629000Y-71300000D01*
X178629000Y-68849606D01*
X178665927Y-68812743D01*
X178803842Y-68480606D01*
X178804100Y-68185062D01*
X179885890Y-69266852D01*
X179885844Y-69319028D01*
X180023180Y-69651406D01*
X180277257Y-69905927D01*
X180609394Y-70043842D01*
X180969028Y-70044156D01*
X181301406Y-69906820D01*
X181555927Y-69652743D01*
X181617720Y-69503928D01*
X181879028Y-69504156D01*
X182211406Y-69366820D01*
X182465927Y-69112743D01*
X182603842Y-68780606D01*
X182604156Y-68420972D01*
X182466820Y-68088594D01*
X182429000Y-68050708D01*
X182429000Y-65820000D01*
X182373508Y-65541024D01*
X182215481Y-65304519D01*
X180809000Y-63898038D01*
X180809000Y-60333725D01*
X180876023Y-60378508D01*
X181155000Y-60434000D01*
X181475618Y-60434000D01*
X181526652Y-60513309D01*
X181695075Y-60628387D01*
X181895000Y-60668873D01*
X183095000Y-60668873D01*
X183281771Y-60633730D01*
X183453309Y-60523348D01*
X183568387Y-60354925D01*
X183594491Y-60226022D01*
X183616270Y-60341771D01*
X183726652Y-60513309D01*
X183895075Y-60628387D01*
X184095000Y-60668873D01*
X185295000Y-60668873D01*
X185481771Y-60633730D01*
X185599195Y-60558169D01*
X185769394Y-60628842D01*
X186129028Y-60629156D01*
X186461406Y-60491820D01*
X186715927Y-60237743D01*
X186853842Y-59905606D01*
X186854156Y-59545972D01*
X186716820Y-59213594D01*
X186462743Y-58959073D01*
X186130606Y-58821158D01*
X185777313Y-58820850D01*
X185808873Y-58665000D01*
X185808873Y-57765000D01*
X185773730Y-57578229D01*
X185663348Y-57406691D01*
X185494925Y-57291613D01*
X185295000Y-57251127D01*
X184095000Y-57251127D01*
X183908229Y-57286270D01*
X183736691Y-57396652D01*
X183621613Y-57565075D01*
X183595509Y-57693978D01*
X183573730Y-57578229D01*
X183463348Y-57406691D01*
X183360994Y-57336755D01*
X183398842Y-57245606D01*
X183399156Y-56885972D01*
X183261820Y-56553594D01*
X183007743Y-56299073D01*
X182675606Y-56161158D01*
X182315972Y-56160844D01*
X181983594Y-56298180D01*
X181729073Y-56552257D01*
X181661471Y-56715061D01*
X181596820Y-56558594D01*
X181342743Y-56304073D01*
X181010606Y-56166158D01*
X180650972Y-56165844D01*
X180318594Y-56303180D01*
X180275033Y-56346665D01*
X180102743Y-56174073D01*
X179770606Y-56036158D01*
X179410972Y-56035844D01*
X179078594Y-56173180D01*
X178945086Y-56306455D01*
X178922743Y-56284073D01*
X178590606Y-56146158D01*
X178230972Y-56145844D01*
X177898594Y-56283180D01*
X177644073Y-56537257D01*
X177506158Y-56869394D01*
X177505844Y-57229028D01*
X177512005Y-57243938D01*
X177300606Y-57156158D01*
X176940972Y-57155844D01*
X176608594Y-57293180D01*
X176354073Y-57547257D01*
X176216158Y-57879394D01*
X176215844Y-58239028D01*
X176353180Y-58571406D01*
X176607257Y-58825927D01*
X176939394Y-58963842D01*
X176992927Y-58963889D01*
X177461000Y-59431961D01*
X177461000Y-63596054D01*
X177220972Y-63595844D01*
X176888594Y-63733180D01*
X176634073Y-63987257D01*
X176496158Y-64319394D01*
X176496142Y-64337540D01*
X176407682Y-64426000D01*
X176362647Y-64426000D01*
X176324880Y-64418352D01*
X174229000Y-64418352D01*
X174229000Y-58901602D01*
X174405520Y-58937348D01*
X175085520Y-58937348D01*
X175272291Y-58902205D01*
X175443829Y-58791823D01*
X175558907Y-58623400D01*
X175599393Y-58423475D01*
X175599393Y-56299525D01*
X175564250Y-56112754D01*
X175453868Y-55941216D01*
X175285445Y-55826138D01*
X175085520Y-55785652D01*
X174621179Y-55785652D01*
X174678387Y-55701925D01*
X174692750Y-55631000D01*
X176522995Y-55631000D01*
X176523000Y-55631001D01*
X176811543Y-55573605D01*
X177056159Y-55410159D01*
X179233156Y-53233161D01*
X179233159Y-53233159D01*
X179396605Y-52988543D01*
X179423810Y-52851776D01*
X179454001Y-52700000D01*
X179454000Y-52699995D01*
X179454000Y-52538873D01*
X180625000Y-52538873D01*
X180811771Y-52503730D01*
X180983309Y-52393348D01*
X181065614Y-52272890D01*
X181682767Y-52272890D01*
X181714389Y-52547516D01*
X182205661Y-52772277D01*
X182745550Y-52791927D01*
X183251862Y-52603475D01*
X183335611Y-52547516D01*
X183367233Y-52272890D01*
X182525000Y-51430657D01*
X181682767Y-52272890D01*
X181065614Y-52272890D01*
X181098387Y-52224925D01*
X181138873Y-52025000D01*
X181138873Y-50913873D01*
X181200000Y-50913873D01*
X181271634Y-50900394D01*
X181177723Y-51105661D01*
X181158073Y-51645550D01*
X181346525Y-52151862D01*
X181402484Y-52235611D01*
X181677110Y-52267233D01*
X182519343Y-51425000D01*
X182505201Y-51410858D01*
X182510858Y-51405201D01*
X182525000Y-51419343D01*
X182539142Y-51405201D01*
X182544799Y-51410858D01*
X182530657Y-51425000D01*
X183372890Y-52267233D01*
X183647516Y-52235611D01*
X183872277Y-51744339D01*
X183891927Y-51204450D01*
X183735153Y-50783248D01*
X183758309Y-50768348D01*
X183819358Y-50679000D01*
X184209647Y-50679000D01*
X184089620Y-50798818D01*
X183921192Y-51204437D01*
X183920808Y-51643636D01*
X184088528Y-52049549D01*
X184398818Y-52360380D01*
X184804437Y-52528808D01*
X185243636Y-52529192D01*
X185649549Y-52361472D01*
X185960380Y-52051182D01*
X186054299Y-51825000D01*
X186495746Y-51825000D01*
X186588528Y-52049549D01*
X186898818Y-52360380D01*
X187304437Y-52528808D01*
X187743636Y-52529192D01*
X188149549Y-52361472D01*
X188460380Y-52051182D01*
X188628808Y-51645563D01*
X188629192Y-51206364D01*
X188461472Y-50800451D01*
X188254000Y-50592617D01*
X188254000Y-49225000D01*
X188214538Y-49026613D01*
X188198508Y-48946023D01*
X188040481Y-48709519D01*
X187734962Y-48404000D01*
X191350000Y-48404000D01*
X191350000Y-71446000D01*
G36*
X170081647Y-58423475D02*
X170116790Y-58610246D01*
X170227172Y-58781784D01*
X170395595Y-58896862D01*
X170595520Y-58937348D01*
X171275520Y-58937348D01*
X171462291Y-58902205D01*
X171571018Y-58832241D01*
X171665595Y-58896862D01*
X171865520Y-58937348D01*
X172545520Y-58937348D01*
X172721000Y-58904330D01*
X172721000Y-61921389D01*
X172578976Y-61826492D01*
X172300000Y-61771000D01*
X172049606Y-61771000D01*
X172012743Y-61734073D01*
X171680606Y-61596158D01*
X171320972Y-61595844D01*
X170988594Y-61733180D01*
X170734073Y-61987257D01*
X170596158Y-62319394D01*
X170595844Y-62679028D01*
X170733180Y-63011406D01*
X170987257Y-63265927D01*
X171319394Y-63403842D01*
X171679028Y-63404156D01*
X172011406Y-63266820D01*
X172023643Y-63254605D01*
X172721000Y-63951962D01*
X172721000Y-64418352D01*
X170625120Y-64418352D01*
X170438349Y-64453495D01*
X170266811Y-64563877D01*
X170151733Y-64732300D01*
X170111247Y-64932225D01*
X170111247Y-68681775D01*
X170146390Y-68868546D01*
X170256772Y-69040084D01*
X170425195Y-69155162D01*
X170625120Y-69195648D01*
X171746000Y-69195648D01*
X171746000Y-71106359D01*
X171480606Y-70996158D01*
X171120972Y-70995844D01*
X170788594Y-71133180D01*
X170780760Y-71141000D01*
X170637604Y-71141000D01*
X170362105Y-71086200D01*
X169449895Y-71086200D01*
X169140381Y-71147766D01*
X168877987Y-71323092D01*
X168754000Y-71508652D01*
X168754000Y-61335005D01*
X168754001Y-61335000D01*
X168696605Y-61046457D01*
X168595969Y-60895844D01*
X168533159Y-60801841D01*
X168533156Y-60801839D01*
X167693793Y-59962476D01*
X167694226Y-59466756D01*
X167496122Y-58987308D01*
X167129621Y-58620167D01*
X166650520Y-58421227D01*
X166131756Y-58420774D01*
X165652308Y-58618878D01*
X165285167Y-58985379D01*
X165086227Y-59464480D01*
X165085947Y-59784766D01*
X164842083Y-59738574D01*
X163855657Y-60725000D01*
X163869799Y-60739142D01*
X163864142Y-60744799D01*
X163850000Y-60730657D01*
X163835858Y-60744799D01*
X163830201Y-60739142D01*
X163844343Y-60725000D01*
X163830201Y-60710858D01*
X163835858Y-60705201D01*
X163850000Y-60719343D01*
X164836426Y-59732917D01*
X164812516Y-59606690D01*
X164954833Y-59464621D01*
X165153773Y-58985520D01*
X165154226Y-58466756D01*
X165009090Y-58115500D01*
X170081647Y-58115500D01*
X170081647Y-58423475D01*
X170081647Y-58423475D01*
G37*
X170081647Y-58423475D02*
X170116790Y-58610246D01*
X170227172Y-58781784D01*
X170395595Y-58896862D01*
X170595520Y-58937348D01*
X171275520Y-58937348D01*
X171462291Y-58902205D01*
X171571018Y-58832241D01*
X171665595Y-58896862D01*
X171865520Y-58937348D01*
X172545520Y-58937348D01*
X172721000Y-58904330D01*
X172721000Y-61921389D01*
X172578976Y-61826492D01*
X172300000Y-61771000D01*
X172049606Y-61771000D01*
X172012743Y-61734073D01*
X171680606Y-61596158D01*
X171320972Y-61595844D01*
X170988594Y-61733180D01*
X170734073Y-61987257D01*
X170596158Y-62319394D01*
X170595844Y-62679028D01*
X170733180Y-63011406D01*
X170987257Y-63265927D01*
X171319394Y-63403842D01*
X171679028Y-63404156D01*
X172011406Y-63266820D01*
X172023643Y-63254605D01*
X172721000Y-63951962D01*
X172721000Y-64418352D01*
X170625120Y-64418352D01*
X170438349Y-64453495D01*
X170266811Y-64563877D01*
X170151733Y-64732300D01*
X170111247Y-64932225D01*
X170111247Y-68681775D01*
X170146390Y-68868546D01*
X170256772Y-69040084D01*
X170425195Y-69155162D01*
X170625120Y-69195648D01*
X171746000Y-69195648D01*
X171746000Y-71106359D01*
X171480606Y-70996158D01*
X171120972Y-70995844D01*
X170788594Y-71133180D01*
X170780760Y-71141000D01*
X170637604Y-71141000D01*
X170362105Y-71086200D01*
X169449895Y-71086200D01*
X169140381Y-71147766D01*
X168877987Y-71323092D01*
X168754000Y-71508652D01*
X168754000Y-61335005D01*
X168754001Y-61335000D01*
X168696605Y-61046457D01*
X168595969Y-60895844D01*
X168533159Y-60801841D01*
X168533156Y-60801839D01*
X167693793Y-59962476D01*
X167694226Y-59466756D01*
X167496122Y-58987308D01*
X167129621Y-58620167D01*
X166650520Y-58421227D01*
X166131756Y-58420774D01*
X165652308Y-58618878D01*
X165285167Y-58985379D01*
X165086227Y-59464480D01*
X165085947Y-59784766D01*
X164842083Y-59738574D01*
X163855657Y-60725000D01*
X163869799Y-60739142D01*
X163864142Y-60744799D01*
X163850000Y-60730657D01*
X163835858Y-60744799D01*
X163830201Y-60739142D01*
X163844343Y-60725000D01*
X163830201Y-60710858D01*
X163835858Y-60705201D01*
X163850000Y-60719343D01*
X164836426Y-59732917D01*
X164812516Y-59606690D01*
X164954833Y-59464621D01*
X165153773Y-58985520D01*
X165154226Y-58466756D01*
X165009090Y-58115500D01*
X170081647Y-58115500D01*
X170081647Y-58423475D01*
G36*
X166409799Y-61710858D02*
X166395657Y-61725000D01*
X166409799Y-61739142D01*
X166404142Y-61744799D01*
X166390000Y-61730657D01*
X166375858Y-61744799D01*
X166370201Y-61739142D01*
X166384343Y-61725000D01*
X166370201Y-61710858D01*
X166375858Y-61705201D01*
X166390000Y-61719343D01*
X166404142Y-61705201D01*
X166409799Y-61710858D01*
X166409799Y-61710858D01*
G37*
X166409799Y-61710858D02*
X166395657Y-61725000D01*
X166409799Y-61739142D01*
X166404142Y-61744799D01*
X166390000Y-61730657D01*
X166375858Y-61744799D01*
X166370201Y-61739142D01*
X166384343Y-61725000D01*
X166370201Y-61710858D01*
X166375858Y-61705201D01*
X166390000Y-61719343D01*
X166404142Y-61705201D01*
X166409799Y-61710858D01*
M02*
