G04 #@! TF.FileFunction,Legend,Bot*
%FSLAX46Y46*%
G04 Gerber Fmt 4.6, Leading zero omitted, Abs format (unit mm)*
G04 Created by KiCad (PCBNEW 4.0.5) date 04/04/17 09:28:52*
%MOMM*%
%LPD*%
G01*
G04 APERTURE LIST*
%ADD10C,0.100000*%
%ADD11C,0.150000*%
%ADD12C,0.254000*%
%ADD13C,0.120000*%
%ADD14C,0.304800*%
G04 APERTURE END LIST*
D10*
D11*
X199125589Y-92032343D02*
X199396522Y-92032343D01*
X199396522Y-92458095D02*
X199396522Y-91645295D01*
X199009475Y-91645295D01*
X198351493Y-91916229D02*
X198351493Y-92458095D01*
X198699836Y-91916229D02*
X198699836Y-92341981D01*
X198661131Y-92419390D01*
X198583722Y-92458095D01*
X198467608Y-92458095D01*
X198390198Y-92419390D01*
X198351493Y-92380686D01*
X197848332Y-92458095D02*
X197925741Y-92419390D01*
X197964446Y-92341981D01*
X197964446Y-91645295D01*
X197422580Y-92458095D02*
X197499989Y-92419390D01*
X197538694Y-92341981D01*
X197538694Y-91645295D01*
X196493666Y-92458095D02*
X196493666Y-91645295D01*
X196029209Y-92458095D01*
X196029209Y-91645295D01*
X195293818Y-92419390D02*
X195371228Y-92458095D01*
X195526047Y-92458095D01*
X195603456Y-92419390D01*
X195642161Y-92380686D01*
X195680866Y-92303276D01*
X195680866Y-92071048D01*
X195642161Y-91993638D01*
X195603456Y-91954933D01*
X195526047Y-91916229D01*
X195371228Y-91916229D01*
X195293818Y-91954933D01*
X194945475Y-92458095D02*
X194945475Y-91645295D01*
X194597132Y-92458095D02*
X194597132Y-92032343D01*
X194635837Y-91954933D01*
X194713247Y-91916229D01*
X194829361Y-91916229D01*
X194906770Y-91954933D01*
X194945475Y-91993638D01*
X193590809Y-92458095D02*
X193590809Y-91645295D01*
X193319876Y-92225867D01*
X193048943Y-91645295D01*
X193048943Y-92458095D01*
X192545781Y-92458095D02*
X192623190Y-92419390D01*
X192661895Y-92380686D01*
X192700600Y-92303276D01*
X192700600Y-92071048D01*
X192661895Y-91993638D01*
X192623190Y-91954933D01*
X192545781Y-91916229D01*
X192429667Y-91916229D01*
X192352257Y-91954933D01*
X192313552Y-91993638D01*
X192274848Y-92071048D01*
X192274848Y-92303276D01*
X192313552Y-92380686D01*
X192352257Y-92419390D01*
X192429667Y-92458095D01*
X192545781Y-92458095D01*
X192042619Y-91916229D02*
X191732981Y-91916229D01*
X191926505Y-91645295D02*
X191926505Y-92341981D01*
X191887800Y-92419390D01*
X191810391Y-92458095D01*
X191732981Y-92458095D01*
X191345934Y-92458095D02*
X191423343Y-92419390D01*
X191462048Y-92380686D01*
X191500753Y-92303276D01*
X191500753Y-92071048D01*
X191462048Y-91993638D01*
X191423343Y-91954933D01*
X191345934Y-91916229D01*
X191229820Y-91916229D01*
X191152410Y-91954933D01*
X191113705Y-91993638D01*
X191075001Y-92071048D01*
X191075001Y-92303276D01*
X191113705Y-92380686D01*
X191152410Y-92419390D01*
X191229820Y-92458095D01*
X191345934Y-92458095D01*
X190726658Y-92458095D02*
X190726658Y-91916229D01*
X190726658Y-92071048D02*
X190687953Y-91993638D01*
X190649249Y-91954933D01*
X190571839Y-91916229D01*
X190494430Y-91916229D01*
X190223496Y-92458095D02*
X190223496Y-91645295D01*
X190029972Y-91645295D01*
X189913858Y-91684000D01*
X189836449Y-91761410D01*
X189797744Y-91838819D01*
X189759039Y-91993638D01*
X189759039Y-92109752D01*
X189797744Y-92264571D01*
X189836449Y-92341981D01*
X189913858Y-92419390D01*
X190029972Y-92458095D01*
X190223496Y-92458095D01*
X189410696Y-92458095D02*
X189410696Y-91916229D01*
X189410696Y-92071048D02*
X189371991Y-91993638D01*
X189333287Y-91954933D01*
X189255877Y-91916229D01*
X189178468Y-91916229D01*
X188907534Y-92458095D02*
X188907534Y-91916229D01*
X188907534Y-91645295D02*
X188946239Y-91684000D01*
X188907534Y-91722705D01*
X188868829Y-91684000D01*
X188907534Y-91645295D01*
X188907534Y-91722705D01*
X188597896Y-91916229D02*
X188404372Y-92458095D01*
X188210848Y-91916229D01*
X187591572Y-92419390D02*
X187668982Y-92458095D01*
X187823801Y-92458095D01*
X187901210Y-92419390D01*
X187939915Y-92341981D01*
X187939915Y-92032343D01*
X187901210Y-91954933D01*
X187823801Y-91916229D01*
X187668982Y-91916229D01*
X187591572Y-91954933D01*
X187552867Y-92032343D01*
X187552867Y-92109752D01*
X187939915Y-92187162D01*
X187204524Y-92458095D02*
X187204524Y-91916229D01*
X187204524Y-92071048D02*
X187165819Y-91993638D01*
X187127115Y-91954933D01*
X187049705Y-91916229D01*
X186972296Y-91916229D01*
X186159496Y-91916229D02*
X185965972Y-92458095D01*
X185772448Y-91916229D01*
X185307991Y-91645295D02*
X185230582Y-91645295D01*
X185153172Y-91684000D01*
X185114467Y-91722705D01*
X185075763Y-91800114D01*
X185037058Y-91954933D01*
X185037058Y-92148457D01*
X185075763Y-92303276D01*
X185114467Y-92380686D01*
X185153172Y-92419390D01*
X185230582Y-92458095D01*
X185307991Y-92458095D01*
X185385401Y-92419390D01*
X185424105Y-92380686D01*
X185462810Y-92303276D01*
X185501515Y-92148457D01*
X185501515Y-91954933D01*
X185462810Y-91800114D01*
X185424105Y-91722705D01*
X185385401Y-91684000D01*
X185307991Y-91645295D01*
X184688715Y-92380686D02*
X184650010Y-92419390D01*
X184688715Y-92458095D01*
X184727420Y-92419390D01*
X184688715Y-92380686D01*
X184688715Y-92458095D01*
X184340372Y-91722705D02*
X184301667Y-91684000D01*
X184224258Y-91645295D01*
X184030734Y-91645295D01*
X183953324Y-91684000D01*
X183914620Y-91722705D01*
X183875915Y-91800114D01*
X183875915Y-91877524D01*
X183914620Y-91993638D01*
X184379077Y-92458095D01*
X183875915Y-92458095D01*
X183527572Y-92380686D02*
X183488867Y-92419390D01*
X183527572Y-92458095D01*
X183566277Y-92419390D01*
X183527572Y-92380686D01*
X183527572Y-92458095D01*
X182714772Y-92458095D02*
X183179229Y-92458095D01*
X182947000Y-92458095D02*
X182947000Y-91645295D01*
X183024410Y-91761410D01*
X183101819Y-91838819D01*
X183179229Y-91877524D01*
X201254350Y-93827295D02*
X201254350Y-93014495D01*
X201060826Y-93014495D01*
X200944712Y-93053200D01*
X200867303Y-93130610D01*
X200828598Y-93208019D01*
X200789893Y-93362838D01*
X200789893Y-93478952D01*
X200828598Y-93633771D01*
X200867303Y-93711181D01*
X200944712Y-93788590D01*
X201060826Y-93827295D01*
X201254350Y-93827295D01*
X200131912Y-93788590D02*
X200209322Y-93827295D01*
X200364141Y-93827295D01*
X200441550Y-93788590D01*
X200480255Y-93711181D01*
X200480255Y-93401543D01*
X200441550Y-93324133D01*
X200364141Y-93285429D01*
X200209322Y-93285429D01*
X200131912Y-93324133D01*
X200093207Y-93401543D01*
X200093207Y-93478952D01*
X200480255Y-93556362D01*
X199783569Y-93788590D02*
X199706159Y-93827295D01*
X199551340Y-93827295D01*
X199473931Y-93788590D01*
X199435226Y-93711181D01*
X199435226Y-93672476D01*
X199473931Y-93595067D01*
X199551340Y-93556362D01*
X199667455Y-93556362D01*
X199744864Y-93517657D01*
X199783569Y-93440248D01*
X199783569Y-93401543D01*
X199744864Y-93324133D01*
X199667455Y-93285429D01*
X199551340Y-93285429D01*
X199473931Y-93324133D01*
X199086883Y-93827295D02*
X199086883Y-93285429D01*
X199086883Y-93014495D02*
X199125588Y-93053200D01*
X199086883Y-93091905D01*
X199048178Y-93053200D01*
X199086883Y-93014495D01*
X199086883Y-93091905D01*
X198351492Y-93285429D02*
X198351492Y-93943410D01*
X198390197Y-94020819D01*
X198428902Y-94059524D01*
X198506311Y-94098229D01*
X198622426Y-94098229D01*
X198699835Y-94059524D01*
X198351492Y-93788590D02*
X198428902Y-93827295D01*
X198583721Y-93827295D01*
X198661130Y-93788590D01*
X198699835Y-93749886D01*
X198738540Y-93672476D01*
X198738540Y-93440248D01*
X198699835Y-93362838D01*
X198661130Y-93324133D01*
X198583721Y-93285429D01*
X198428902Y-93285429D01*
X198351492Y-93324133D01*
X197964445Y-93285429D02*
X197964445Y-93827295D01*
X197964445Y-93362838D02*
X197925740Y-93324133D01*
X197848331Y-93285429D01*
X197732217Y-93285429D01*
X197654807Y-93324133D01*
X197616102Y-93401543D01*
X197616102Y-93827295D01*
X196919417Y-93788590D02*
X196996827Y-93827295D01*
X197151646Y-93827295D01*
X197229055Y-93788590D01*
X197267760Y-93711181D01*
X197267760Y-93401543D01*
X197229055Y-93324133D01*
X197151646Y-93285429D01*
X196996827Y-93285429D01*
X196919417Y-93324133D01*
X196880712Y-93401543D01*
X196880712Y-93478952D01*
X197267760Y-93556362D01*
X196184026Y-93827295D02*
X196184026Y-93014495D01*
X196184026Y-93788590D02*
X196261436Y-93827295D01*
X196416255Y-93827295D01*
X196493664Y-93788590D01*
X196532369Y-93749886D01*
X196571074Y-93672476D01*
X196571074Y-93440248D01*
X196532369Y-93362838D01*
X196493664Y-93324133D01*
X196416255Y-93285429D01*
X196261436Y-93285429D01*
X196184026Y-93324133D01*
X195177703Y-93827295D02*
X195177703Y-93014495D01*
X195177703Y-93324133D02*
X195100294Y-93285429D01*
X194945475Y-93285429D01*
X194868065Y-93324133D01*
X194829360Y-93362838D01*
X194790656Y-93440248D01*
X194790656Y-93672476D01*
X194829360Y-93749886D01*
X194868065Y-93788590D01*
X194945475Y-93827295D01*
X195100294Y-93827295D01*
X195177703Y-93788590D01*
X194519723Y-93285429D02*
X194326199Y-93827295D01*
X194132675Y-93285429D02*
X194326199Y-93827295D01*
X194403608Y-94020819D01*
X194442313Y-94059524D01*
X194519723Y-94098229D01*
X193048942Y-93440248D02*
X193048942Y-93827295D01*
X193319875Y-93014495D02*
X193048942Y-93440248D01*
X192778009Y-93014495D01*
X192158732Y-93827295D02*
X192158732Y-93401543D01*
X192197437Y-93324133D01*
X192274847Y-93285429D01*
X192429666Y-93285429D01*
X192507075Y-93324133D01*
X192158732Y-93788590D02*
X192236142Y-93827295D01*
X192429666Y-93827295D01*
X192507075Y-93788590D01*
X192545780Y-93711181D01*
X192545780Y-93633771D01*
X192507075Y-93556362D01*
X192429666Y-93517657D01*
X192236142Y-93517657D01*
X192158732Y-93478952D01*
X191810390Y-93788590D02*
X191732980Y-93827295D01*
X191578161Y-93827295D01*
X191500752Y-93788590D01*
X191462047Y-93711181D01*
X191462047Y-93672476D01*
X191500752Y-93595067D01*
X191578161Y-93556362D01*
X191694276Y-93556362D01*
X191771685Y-93517657D01*
X191810390Y-93440248D01*
X191810390Y-93401543D01*
X191771685Y-93324133D01*
X191694276Y-93285429D01*
X191578161Y-93285429D01*
X191500752Y-93324133D01*
X190765361Y-93285429D02*
X190765361Y-93827295D01*
X191113704Y-93285429D02*
X191113704Y-93711181D01*
X191074999Y-93788590D01*
X190997590Y-93827295D01*
X190881476Y-93827295D01*
X190804066Y-93788590D01*
X190765361Y-93749886D01*
X190494428Y-93285429D02*
X190184790Y-93285429D01*
X190378314Y-93014495D02*
X190378314Y-93711181D01*
X190339609Y-93788590D01*
X190262200Y-93827295D01*
X190184790Y-93827295D01*
X189797743Y-93827295D02*
X189875152Y-93788590D01*
X189913857Y-93749886D01*
X189952562Y-93672476D01*
X189952562Y-93440248D01*
X189913857Y-93362838D01*
X189875152Y-93324133D01*
X189797743Y-93285429D01*
X189681629Y-93285429D01*
X189604219Y-93324133D01*
X189565514Y-93362838D01*
X189526810Y-93440248D01*
X189526810Y-93672476D01*
X189565514Y-93749886D01*
X189604219Y-93788590D01*
X189681629Y-93827295D01*
X189797743Y-93827295D01*
X189217172Y-93788590D02*
X189139762Y-93827295D01*
X188984943Y-93827295D01*
X188907534Y-93788590D01*
X188868829Y-93711181D01*
X188868829Y-93672476D01*
X188907534Y-93595067D01*
X188984943Y-93556362D01*
X189101058Y-93556362D01*
X189178467Y-93517657D01*
X189217172Y-93440248D01*
X189217172Y-93401543D01*
X189178467Y-93324133D01*
X189101058Y-93285429D01*
X188984943Y-93285429D01*
X188907534Y-93324133D01*
X188520486Y-93827295D02*
X188520486Y-93014495D01*
X188172143Y-93827295D02*
X188172143Y-93401543D01*
X188210848Y-93324133D01*
X188288258Y-93285429D01*
X188404372Y-93285429D01*
X188481781Y-93324133D01*
X188520486Y-93362838D01*
X187785096Y-93827295D02*
X187785096Y-93285429D01*
X187785096Y-93014495D02*
X187823801Y-93053200D01*
X187785096Y-93091905D01*
X187746391Y-93053200D01*
X187785096Y-93014495D01*
X187785096Y-93091905D01*
X187359343Y-93788590D02*
X187359343Y-93827295D01*
X187398048Y-93904705D01*
X187436753Y-93943410D01*
X186391724Y-93827295D02*
X186391724Y-93014495D01*
X186120791Y-93595067D01*
X185849858Y-93014495D01*
X185849858Y-93827295D01*
X185114467Y-93827295D02*
X185114467Y-93401543D01*
X185153172Y-93324133D01*
X185230582Y-93285429D01*
X185385401Y-93285429D01*
X185462810Y-93324133D01*
X185114467Y-93788590D02*
X185191877Y-93827295D01*
X185385401Y-93827295D01*
X185462810Y-93788590D01*
X185501515Y-93711181D01*
X185501515Y-93633771D01*
X185462810Y-93556362D01*
X185385401Y-93517657D01*
X185191877Y-93517657D01*
X185114467Y-93478952D01*
X184727420Y-93827295D02*
X184727420Y-93285429D01*
X184727420Y-93440248D02*
X184688715Y-93362838D01*
X184650011Y-93324133D01*
X184572601Y-93285429D01*
X184495192Y-93285429D01*
X183643687Y-93091905D02*
X183604982Y-93053200D01*
X183527573Y-93014495D01*
X183334049Y-93014495D01*
X183256639Y-93053200D01*
X183217935Y-93091905D01*
X183179230Y-93169314D01*
X183179230Y-93246724D01*
X183217935Y-93362838D01*
X183682392Y-93827295D01*
X183179230Y-93827295D01*
X182676068Y-93014495D02*
X182598659Y-93014495D01*
X182521249Y-93053200D01*
X182482544Y-93091905D01*
X182443840Y-93169314D01*
X182405135Y-93324133D01*
X182405135Y-93517657D01*
X182443840Y-93672476D01*
X182482544Y-93749886D01*
X182521249Y-93788590D01*
X182598659Y-93827295D01*
X182676068Y-93827295D01*
X182753478Y-93788590D01*
X182792182Y-93749886D01*
X182830887Y-93672476D01*
X182869592Y-93517657D01*
X182869592Y-93324133D01*
X182830887Y-93169314D01*
X182792182Y-93091905D01*
X182753478Y-93053200D01*
X182676068Y-93014495D01*
X181631040Y-93827295D02*
X182095497Y-93827295D01*
X181863268Y-93827295D02*
X181863268Y-93014495D01*
X181940678Y-93130610D01*
X182018087Y-93208019D01*
X182095497Y-93246724D01*
X181360107Y-93014495D02*
X180818240Y-93014495D01*
X181166583Y-93827295D01*
X212950000Y-76676000D02*
X218030000Y-76676000D01*
X218030000Y-76676000D02*
X218030000Y-72104000D01*
X218030000Y-72104000D02*
X212950000Y-72104000D01*
X212950000Y-72104000D02*
X212950000Y-76676000D01*
X212950000Y-75152000D02*
X213458000Y-75152000D01*
X213458000Y-75152000D02*
X213458000Y-73882000D01*
X213458000Y-73882000D02*
X212950000Y-73882000D01*
X173589000Y-71895000D02*
G75*
G03X173589000Y-71895000I-127000J0D01*
G01*
X174097000Y-71260000D02*
X174097000Y-76340000D01*
X170795000Y-71260000D02*
X170795000Y-76340000D01*
X174605000Y-71260000D02*
X174605000Y-76340000D01*
X174605000Y-71260000D02*
X170795000Y-71260000D01*
X174605000Y-76340000D02*
X170795000Y-76340000D01*
D12*
X212232000Y-81885000D02*
G75*
G03X212232000Y-81885000I-46000J0D01*
G01*
D13*
X214200000Y-83600000D02*
X214200000Y-82600000D01*
X215900000Y-82600000D02*
X215900000Y-83600000D01*
X204035000Y-81505000D02*
X205035000Y-81505000D01*
X205035000Y-80145000D02*
X204035000Y-80145000D01*
X205065000Y-83615000D02*
X204065000Y-83615000D01*
X204065000Y-84975000D02*
X205065000Y-84975000D01*
X204055000Y-83075000D02*
X205055000Y-83075000D01*
X205055000Y-81715000D02*
X204055000Y-81715000D01*
X213526000Y-61968000D02*
X213526000Y-60968000D01*
X215226000Y-60968000D02*
X215226000Y-61968000D01*
X206875000Y-77445000D02*
X204875000Y-77445000D01*
X204875000Y-75405000D02*
X206875000Y-75405000D01*
X197325000Y-75455000D02*
X199325000Y-75455000D01*
X199325000Y-77495000D02*
X197325000Y-77495000D01*
X201025000Y-79275000D02*
X200025000Y-79275000D01*
X200025000Y-77575000D02*
X201025000Y-77575000D01*
X176980000Y-80000000D02*
X176980000Y-79000000D01*
X175620000Y-79000000D02*
X175620000Y-80000000D01*
X178980000Y-80000000D02*
X178980000Y-79000000D01*
X177620000Y-79000000D02*
X177620000Y-80000000D01*
X180980000Y-80000000D02*
X180980000Y-79000000D01*
X179620000Y-79000000D02*
X179620000Y-80000000D01*
X174980000Y-80000000D02*
X174980000Y-79000000D01*
X173620000Y-79000000D02*
X173620000Y-80000000D01*
D11*
X170885000Y-65625000D02*
X170885000Y-67325000D01*
X170885000Y-67325000D02*
X176085000Y-67325000D01*
X176085000Y-67325000D02*
X176085000Y-65635000D01*
X170685000Y-60125000D02*
X170175000Y-60125000D01*
X170175000Y-60125000D02*
X170185000Y-65625000D01*
X170185000Y-65625000D02*
X176785000Y-65625000D01*
X176785000Y-65625000D02*
X176785000Y-60125000D01*
X176785000Y-60125000D02*
X176255000Y-60125000D01*
X175765000Y-58835000D02*
X175765000Y-60115000D01*
X174995000Y-58825000D02*
X174995000Y-60125000D01*
X174495000Y-58825000D02*
X174495000Y-60125000D01*
X173725000Y-58815000D02*
X173725000Y-60115000D01*
X173225000Y-58825000D02*
X173225000Y-60125000D01*
X172455000Y-58835000D02*
X172455000Y-60125000D01*
X171955000Y-58835000D02*
X171955000Y-60115000D01*
X171185000Y-58825000D02*
X171185000Y-60125000D01*
X170685000Y-58425000D02*
X170685000Y-60125000D01*
X170685000Y-60125000D02*
X176265000Y-60125000D01*
X176265000Y-60125000D02*
X176265000Y-58805000D01*
X176265000Y-58425000D02*
X176265000Y-58825000D01*
X175765000Y-58425000D02*
X175765000Y-58825000D01*
X176265000Y-57525000D02*
X176265000Y-58425000D01*
X175765000Y-57525000D02*
X176265000Y-57525000D01*
X175765000Y-58425000D02*
X175765000Y-57525000D01*
X175765000Y-58425000D02*
X176265000Y-58425000D01*
X173725000Y-58425000D02*
X173725000Y-58825000D01*
X173225000Y-58425000D02*
X173225000Y-58825000D01*
X173725000Y-57525000D02*
X173725000Y-58425000D01*
X173225000Y-57525000D02*
X173725000Y-57525000D01*
X173225000Y-58425000D02*
X173225000Y-57525000D01*
X173225000Y-58425000D02*
X173725000Y-58425000D01*
X174495000Y-58425000D02*
X174995000Y-58425000D01*
X174495000Y-58425000D02*
X174495000Y-57525000D01*
X174495000Y-57525000D02*
X174995000Y-57525000D01*
X174995000Y-57525000D02*
X174995000Y-58425000D01*
X174495000Y-58425000D02*
X174495000Y-58825000D01*
X174995000Y-58425000D02*
X174995000Y-58825000D01*
X172455000Y-58425000D02*
X172455000Y-58825000D01*
X171955000Y-58425000D02*
X171955000Y-58825000D01*
X172455000Y-57525000D02*
X172455000Y-58425000D01*
X171955000Y-57525000D02*
X172455000Y-57525000D01*
X171955000Y-58425000D02*
X171955000Y-57525000D01*
X171955000Y-58425000D02*
X172455000Y-58425000D01*
X170685000Y-58425000D02*
X171185000Y-58425000D01*
X170685000Y-58425000D02*
X170685000Y-57525000D01*
X170685000Y-57525000D02*
X171185000Y-57525000D01*
X171185000Y-57525000D02*
X171185000Y-58425000D01*
X170685000Y-58425000D02*
X170685000Y-58825000D01*
X171185000Y-58425000D02*
X171185000Y-58825000D01*
D13*
X182200000Y-47920000D02*
X181200000Y-47920000D01*
X181200000Y-49280000D02*
X182200000Y-49280000D01*
X182200000Y-49270000D02*
X181200000Y-49270000D01*
X181200000Y-50630000D02*
X182200000Y-50630000D01*
X204905000Y-88275000D02*
X204905000Y-87275000D01*
X203545000Y-87275000D02*
X203545000Y-88275000D01*
X206355000Y-88325000D02*
X206355000Y-87325000D01*
X204995000Y-87325000D02*
X204995000Y-88325000D01*
X184095000Y-57535000D02*
X183095000Y-57535000D01*
X183095000Y-58895000D02*
X184095000Y-58895000D01*
X184095000Y-59025000D02*
X183095000Y-59025000D01*
X183095000Y-60385000D02*
X184095000Y-60385000D01*
X172705000Y-55727000D02*
X171705000Y-55727000D01*
X171705000Y-54027000D02*
X172705000Y-54027000D01*
X187050000Y-70900000D02*
X187050000Y-69900000D01*
X188750000Y-69900000D02*
X188750000Y-70900000D01*
X199605000Y-81545000D02*
X200605000Y-81545000D01*
X200605000Y-83245000D02*
X199605000Y-83245000D01*
X180050000Y-72700000D02*
X180050000Y-73700000D01*
X178350000Y-73700000D02*
X178350000Y-72700000D01*
X189320000Y-56375000D02*
X189320000Y-57375000D01*
X190680000Y-57375000D02*
X190680000Y-56375000D01*
D11*
X217489190Y-74067381D02*
X217489190Y-73067381D01*
X216441571Y-73972143D02*
X216489190Y-74019762D01*
X216632047Y-74067381D01*
X216727285Y-74067381D01*
X216870143Y-74019762D01*
X216965381Y-73924524D01*
X217013000Y-73829286D01*
X217060619Y-73638810D01*
X217060619Y-73495952D01*
X217013000Y-73305476D01*
X216965381Y-73210238D01*
X216870143Y-73115000D01*
X216727285Y-73067381D01*
X216632047Y-73067381D01*
X216489190Y-73115000D01*
X216441571Y-73162619D01*
X216108238Y-73067381D02*
X215489190Y-73067381D01*
X215822524Y-73448333D01*
X215679666Y-73448333D01*
X215584428Y-73495952D01*
X215536809Y-73543571D01*
X215489190Y-73638810D01*
X215489190Y-73876905D01*
X215536809Y-73972143D01*
X215584428Y-74019762D01*
X215679666Y-74067381D01*
X215965381Y-74067381D01*
X216060619Y-74019762D01*
X216108238Y-73972143D01*
X173241905Y-73502381D02*
X173241905Y-74311905D01*
X173194286Y-74407143D01*
X173146667Y-74454762D01*
X173051429Y-74502381D01*
X172860952Y-74502381D01*
X172765714Y-74454762D01*
X172718095Y-74407143D01*
X172670476Y-74311905D01*
X172670476Y-73502381D01*
X171670476Y-74502381D02*
X172241905Y-74502381D01*
X171956191Y-74502381D02*
X171956191Y-73502381D01*
X172051429Y-73645238D01*
X172146667Y-73740476D01*
X172241905Y-73788095D01*
D12*
X212637381Y-86874524D02*
X212637381Y-85604524D01*
X212335000Y-85604524D01*
X212153572Y-85665000D01*
X212032619Y-85785952D01*
X211972143Y-85906905D01*
X211911667Y-86148810D01*
X211911667Y-86330238D01*
X211972143Y-86572143D01*
X212032619Y-86693095D01*
X212153572Y-86814048D01*
X212335000Y-86874524D01*
X212637381Y-86874524D01*
X210823095Y-85604524D02*
X211065000Y-85604524D01*
X211185952Y-85665000D01*
X211246429Y-85725476D01*
X211367381Y-85906905D01*
X211427857Y-86148810D01*
X211427857Y-86632619D01*
X211367381Y-86753571D01*
X211306905Y-86814048D01*
X211185952Y-86874524D01*
X210944048Y-86874524D01*
X210823095Y-86814048D01*
X210762619Y-86753571D01*
X210702143Y-86632619D01*
X210702143Y-86330238D01*
X210762619Y-86209286D01*
X210823095Y-86148810D01*
X210944048Y-86088333D01*
X211185952Y-86088333D01*
X211306905Y-86148810D01*
X211367381Y-86209286D01*
X211427857Y-86330238D01*
D11*
X217466666Y-83807143D02*
X217514285Y-83854762D01*
X217657142Y-83902381D01*
X217752380Y-83902381D01*
X217895238Y-83854762D01*
X217990476Y-83759524D01*
X218038095Y-83664286D01*
X218085714Y-83473810D01*
X218085714Y-83330952D01*
X218038095Y-83140476D01*
X217990476Y-83045238D01*
X217895238Y-82950000D01*
X217752380Y-82902381D01*
X217657142Y-82902381D01*
X217514285Y-82950000D01*
X217466666Y-82997619D01*
X216561904Y-82902381D02*
X217038095Y-82902381D01*
X217085714Y-83378571D01*
X217038095Y-83330952D01*
X216942857Y-83283333D01*
X216704761Y-83283333D01*
X216609523Y-83330952D01*
X216561904Y-83378571D01*
X216514285Y-83473810D01*
X216514285Y-83711905D01*
X216561904Y-83807143D01*
X216609523Y-83854762D01*
X216704761Y-83902381D01*
X216942857Y-83902381D01*
X217038095Y-83854762D01*
X217085714Y-83807143D01*
X208416666Y-81402381D02*
X208750000Y-80926190D01*
X208988095Y-81402381D02*
X208988095Y-80402381D01*
X208607142Y-80402381D01*
X208511904Y-80450000D01*
X208464285Y-80497619D01*
X208416666Y-80592857D01*
X208416666Y-80735714D01*
X208464285Y-80830952D01*
X208511904Y-80878571D01*
X208607142Y-80926190D01*
X208988095Y-80926190D01*
X207845238Y-80830952D02*
X207940476Y-80783333D01*
X207988095Y-80735714D01*
X208035714Y-80640476D01*
X208035714Y-80592857D01*
X207988095Y-80497619D01*
X207940476Y-80450000D01*
X207845238Y-80402381D01*
X207654761Y-80402381D01*
X207559523Y-80450000D01*
X207511904Y-80497619D01*
X207464285Y-80592857D01*
X207464285Y-80640476D01*
X207511904Y-80735714D01*
X207559523Y-80783333D01*
X207654761Y-80830952D01*
X207845238Y-80830952D01*
X207940476Y-80878571D01*
X207988095Y-80926190D01*
X208035714Y-81021429D01*
X208035714Y-81211905D01*
X207988095Y-81307143D01*
X207940476Y-81354762D01*
X207845238Y-81402381D01*
X207654761Y-81402381D01*
X207559523Y-81354762D01*
X207511904Y-81307143D01*
X207464285Y-81211905D01*
X207464285Y-81021429D01*
X207511904Y-80926190D01*
X207559523Y-80878571D01*
X207654761Y-80830952D01*
X207666666Y-85252381D02*
X208000000Y-84776190D01*
X208238095Y-85252381D02*
X208238095Y-84252381D01*
X207857142Y-84252381D01*
X207761904Y-84300000D01*
X207714285Y-84347619D01*
X207666666Y-84442857D01*
X207666666Y-84585714D01*
X207714285Y-84680952D01*
X207761904Y-84728571D01*
X207857142Y-84776190D01*
X208238095Y-84776190D01*
X206761904Y-84252381D02*
X207238095Y-84252381D01*
X207285714Y-84728571D01*
X207238095Y-84680952D01*
X207142857Y-84633333D01*
X206904761Y-84633333D01*
X206809523Y-84680952D01*
X206761904Y-84728571D01*
X206714285Y-84823810D01*
X206714285Y-85061905D01*
X206761904Y-85157143D01*
X206809523Y-85204762D01*
X206904761Y-85252381D01*
X207142857Y-85252381D01*
X207238095Y-85204762D01*
X207285714Y-85157143D01*
X207766666Y-83902381D02*
X208100000Y-83426190D01*
X208338095Y-83902381D02*
X208338095Y-82902381D01*
X207957142Y-82902381D01*
X207861904Y-82950000D01*
X207814285Y-82997619D01*
X207766666Y-83092857D01*
X207766666Y-83235714D01*
X207814285Y-83330952D01*
X207861904Y-83378571D01*
X207957142Y-83426190D01*
X208338095Y-83426190D01*
X206909523Y-83235714D02*
X206909523Y-83902381D01*
X207147619Y-82854762D02*
X207385714Y-83569048D01*
X206766666Y-83569048D01*
X217480857Y-60809143D02*
X217528476Y-60856762D01*
X217671333Y-60904381D01*
X217766571Y-60904381D01*
X217909429Y-60856762D01*
X218004667Y-60761524D01*
X218052286Y-60666286D01*
X218099905Y-60475810D01*
X218099905Y-60332952D01*
X218052286Y-60142476D01*
X218004667Y-60047238D01*
X217909429Y-59952000D01*
X217766571Y-59904381D01*
X217671333Y-59904381D01*
X217528476Y-59952000D01*
X217480857Y-59999619D01*
X216528476Y-60904381D02*
X217099905Y-60904381D01*
X216814191Y-60904381D02*
X216814191Y-59904381D01*
X216909429Y-60047238D01*
X217004667Y-60142476D01*
X217099905Y-60190095D01*
X215576095Y-60904381D02*
X216147524Y-60904381D01*
X215861810Y-60904381D02*
X215861810Y-59904381D01*
X215957048Y-60047238D01*
X216052286Y-60142476D01*
X216147524Y-60190095D01*
X206517857Y-78532143D02*
X206565476Y-78579762D01*
X206708333Y-78627381D01*
X206803571Y-78627381D01*
X206946429Y-78579762D01*
X207041667Y-78484524D01*
X207089286Y-78389286D01*
X207136905Y-78198810D01*
X207136905Y-78055952D01*
X207089286Y-77865476D01*
X207041667Y-77770238D01*
X206946429Y-77675000D01*
X206803571Y-77627381D01*
X206708333Y-77627381D01*
X206565476Y-77675000D01*
X206517857Y-77722619D01*
X205565476Y-78627381D02*
X206136905Y-78627381D01*
X205851191Y-78627381D02*
X205851191Y-77627381D01*
X205946429Y-77770238D01*
X206041667Y-77865476D01*
X206136905Y-77913095D01*
X204946429Y-77627381D02*
X204851190Y-77627381D01*
X204755952Y-77675000D01*
X204708333Y-77722619D01*
X204660714Y-77817857D01*
X204613095Y-78008333D01*
X204613095Y-78246429D01*
X204660714Y-78436905D01*
X204708333Y-78532143D01*
X204755952Y-78579762D01*
X204851190Y-78627381D01*
X204946429Y-78627381D01*
X205041667Y-78579762D01*
X205089286Y-78532143D01*
X205136905Y-78436905D01*
X205184524Y-78246429D01*
X205184524Y-78008333D01*
X205136905Y-77817857D01*
X205089286Y-77722619D01*
X205041667Y-77675000D01*
X204946429Y-77627381D01*
X197541666Y-74982143D02*
X197589285Y-75029762D01*
X197732142Y-75077381D01*
X197827380Y-75077381D01*
X197970238Y-75029762D01*
X198065476Y-74934524D01*
X198113095Y-74839286D01*
X198160714Y-74648810D01*
X198160714Y-74505952D01*
X198113095Y-74315476D01*
X198065476Y-74220238D01*
X197970238Y-74125000D01*
X197827380Y-74077381D01*
X197732142Y-74077381D01*
X197589285Y-74125000D01*
X197541666Y-74172619D01*
X197065476Y-75077381D02*
X196875000Y-75077381D01*
X196779761Y-75029762D01*
X196732142Y-74982143D01*
X196636904Y-74839286D01*
X196589285Y-74648810D01*
X196589285Y-74267857D01*
X196636904Y-74172619D01*
X196684523Y-74125000D01*
X196779761Y-74077381D01*
X196970238Y-74077381D01*
X197065476Y-74125000D01*
X197113095Y-74172619D01*
X197160714Y-74267857D01*
X197160714Y-74505952D01*
X197113095Y-74601190D01*
X197065476Y-74648810D01*
X196970238Y-74696429D01*
X196779761Y-74696429D01*
X196684523Y-74648810D01*
X196636904Y-74601190D01*
X196589285Y-74505952D01*
X200826666Y-80367143D02*
X200874285Y-80414762D01*
X201017142Y-80462381D01*
X201112380Y-80462381D01*
X201255238Y-80414762D01*
X201350476Y-80319524D01*
X201398095Y-80224286D01*
X201445714Y-80033810D01*
X201445714Y-79890952D01*
X201398095Y-79700476D01*
X201350476Y-79605238D01*
X201255238Y-79510000D01*
X201112380Y-79462381D01*
X201017142Y-79462381D01*
X200874285Y-79510000D01*
X200826666Y-79557619D01*
X200255238Y-79890952D02*
X200350476Y-79843333D01*
X200398095Y-79795714D01*
X200445714Y-79700476D01*
X200445714Y-79652857D01*
X200398095Y-79557619D01*
X200350476Y-79510000D01*
X200255238Y-79462381D01*
X200064761Y-79462381D01*
X199969523Y-79510000D01*
X199921904Y-79557619D01*
X199874285Y-79652857D01*
X199874285Y-79700476D01*
X199921904Y-79795714D01*
X199969523Y-79843333D01*
X200064761Y-79890952D01*
X200255238Y-79890952D01*
X200350476Y-79938571D01*
X200398095Y-79986190D01*
X200445714Y-80081429D01*
X200445714Y-80271905D01*
X200398095Y-80367143D01*
X200350476Y-80414762D01*
X200255238Y-80462381D01*
X200064761Y-80462381D01*
X199969523Y-80414762D01*
X199921904Y-80367143D01*
X199874285Y-80271905D01*
X199874285Y-80081429D01*
X199921904Y-79986190D01*
X199969523Y-79938571D01*
X200064761Y-79890952D01*
X177102857Y-88352381D02*
X177436191Y-87876190D01*
X177674286Y-88352381D02*
X177674286Y-87352381D01*
X177293333Y-87352381D01*
X177198095Y-87400000D01*
X177150476Y-87447619D01*
X177102857Y-87542857D01*
X177102857Y-87685714D01*
X177150476Y-87780952D01*
X177198095Y-87828571D01*
X177293333Y-87876190D01*
X177674286Y-87876190D01*
X176150476Y-88352381D02*
X176721905Y-88352381D01*
X176436191Y-88352381D02*
X176436191Y-87352381D01*
X176531429Y-87495238D01*
X176626667Y-87590476D01*
X176721905Y-87638095D01*
X175674286Y-88352381D02*
X175483810Y-88352381D01*
X175388571Y-88304762D01*
X175340952Y-88257143D01*
X175245714Y-88114286D01*
X175198095Y-87923810D01*
X175198095Y-87542857D01*
X175245714Y-87447619D01*
X175293333Y-87400000D01*
X175388571Y-87352381D01*
X175579048Y-87352381D01*
X175674286Y-87400000D01*
X175721905Y-87447619D01*
X175769524Y-87542857D01*
X175769524Y-87780952D01*
X175721905Y-87876190D01*
X175674286Y-87923810D01*
X175579048Y-87971429D01*
X175388571Y-87971429D01*
X175293333Y-87923810D01*
X175245714Y-87876190D01*
X175198095Y-87780952D01*
X179042857Y-86982381D02*
X179376191Y-86506190D01*
X179614286Y-86982381D02*
X179614286Y-85982381D01*
X179233333Y-85982381D01*
X179138095Y-86030000D01*
X179090476Y-86077619D01*
X179042857Y-86172857D01*
X179042857Y-86315714D01*
X179090476Y-86410952D01*
X179138095Y-86458571D01*
X179233333Y-86506190D01*
X179614286Y-86506190D01*
X178090476Y-86982381D02*
X178661905Y-86982381D01*
X178376191Y-86982381D02*
X178376191Y-85982381D01*
X178471429Y-86125238D01*
X178566667Y-86220476D01*
X178661905Y-86268095D01*
X177519048Y-86410952D02*
X177614286Y-86363333D01*
X177661905Y-86315714D01*
X177709524Y-86220476D01*
X177709524Y-86172857D01*
X177661905Y-86077619D01*
X177614286Y-86030000D01*
X177519048Y-85982381D01*
X177328571Y-85982381D01*
X177233333Y-86030000D01*
X177185714Y-86077619D01*
X177138095Y-86172857D01*
X177138095Y-86220476D01*
X177185714Y-86315714D01*
X177233333Y-86363333D01*
X177328571Y-86410952D01*
X177519048Y-86410952D01*
X177614286Y-86458571D01*
X177661905Y-86506190D01*
X177709524Y-86601429D01*
X177709524Y-86791905D01*
X177661905Y-86887143D01*
X177614286Y-86934762D01*
X177519048Y-86982381D01*
X177328571Y-86982381D01*
X177233333Y-86934762D01*
X177185714Y-86887143D01*
X177138095Y-86791905D01*
X177138095Y-86601429D01*
X177185714Y-86506190D01*
X177233333Y-86458571D01*
X177328571Y-86410952D01*
X180882857Y-88492381D02*
X181216191Y-88016190D01*
X181454286Y-88492381D02*
X181454286Y-87492381D01*
X181073333Y-87492381D01*
X180978095Y-87540000D01*
X180930476Y-87587619D01*
X180882857Y-87682857D01*
X180882857Y-87825714D01*
X180930476Y-87920952D01*
X180978095Y-87968571D01*
X181073333Y-88016190D01*
X181454286Y-88016190D01*
X179930476Y-88492381D02*
X180501905Y-88492381D01*
X180216191Y-88492381D02*
X180216191Y-87492381D01*
X180311429Y-87635238D01*
X180406667Y-87730476D01*
X180501905Y-87778095D01*
X179597143Y-87492381D02*
X178930476Y-87492381D01*
X179359048Y-88492381D01*
X174962857Y-87152381D02*
X175296191Y-86676190D01*
X175534286Y-87152381D02*
X175534286Y-86152381D01*
X175153333Y-86152381D01*
X175058095Y-86200000D01*
X175010476Y-86247619D01*
X174962857Y-86342857D01*
X174962857Y-86485714D01*
X175010476Y-86580952D01*
X175058095Y-86628571D01*
X175153333Y-86676190D01*
X175534286Y-86676190D01*
X174010476Y-87152381D02*
X174581905Y-87152381D01*
X174296191Y-87152381D02*
X174296191Y-86152381D01*
X174391429Y-86295238D01*
X174486667Y-86390476D01*
X174581905Y-86438095D01*
X173153333Y-86152381D02*
X173343810Y-86152381D01*
X173439048Y-86200000D01*
X173486667Y-86247619D01*
X173581905Y-86390476D01*
X173629524Y-86580952D01*
X173629524Y-86961905D01*
X173581905Y-87057143D01*
X173534286Y-87104762D01*
X173439048Y-87152381D01*
X173248571Y-87152381D01*
X173153333Y-87104762D01*
X173105714Y-87057143D01*
X173058095Y-86961905D01*
X173058095Y-86723810D01*
X173105714Y-86628571D01*
X173153333Y-86580952D01*
X173248571Y-86533333D01*
X173439048Y-86533333D01*
X173534286Y-86580952D01*
X173581905Y-86628571D01*
X173629524Y-86723810D01*
D14*
X174897143Y-62157429D02*
X174897143Y-63391143D01*
X174824571Y-63536286D01*
X174752000Y-63608857D01*
X174606857Y-63681429D01*
X174316571Y-63681429D01*
X174171429Y-63608857D01*
X174098857Y-63536286D01*
X174026286Y-63391143D01*
X174026286Y-62157429D01*
X172647429Y-62665429D02*
X172647429Y-63681429D01*
X173010286Y-62084857D02*
X173373143Y-63173429D01*
X172429715Y-63173429D01*
D11*
X185872857Y-49132381D02*
X186206191Y-48656190D01*
X186444286Y-49132381D02*
X186444286Y-48132381D01*
X186063333Y-48132381D01*
X185968095Y-48180000D01*
X185920476Y-48227619D01*
X185872857Y-48322857D01*
X185872857Y-48465714D01*
X185920476Y-48560952D01*
X185968095Y-48608571D01*
X186063333Y-48656190D01*
X186444286Y-48656190D01*
X184920476Y-49132381D02*
X185491905Y-49132381D01*
X185206191Y-49132381D02*
X185206191Y-48132381D01*
X185301429Y-48275238D01*
X185396667Y-48370476D01*
X185491905Y-48418095D01*
X184063333Y-48465714D02*
X184063333Y-49132381D01*
X184301429Y-48084762D02*
X184539524Y-48799048D01*
X183920476Y-48799048D01*
X185882857Y-50532381D02*
X186216191Y-50056190D01*
X186454286Y-50532381D02*
X186454286Y-49532381D01*
X186073333Y-49532381D01*
X185978095Y-49580000D01*
X185930476Y-49627619D01*
X185882857Y-49722857D01*
X185882857Y-49865714D01*
X185930476Y-49960952D01*
X185978095Y-50008571D01*
X186073333Y-50056190D01*
X186454286Y-50056190D01*
X184930476Y-50532381D02*
X185501905Y-50532381D01*
X185216191Y-50532381D02*
X185216191Y-49532381D01*
X185311429Y-49675238D01*
X185406667Y-49770476D01*
X185501905Y-49818095D01*
X184597143Y-49532381D02*
X183978095Y-49532381D01*
X184311429Y-49913333D01*
X184168571Y-49913333D01*
X184073333Y-49960952D01*
X184025714Y-50008571D01*
X183978095Y-50103810D01*
X183978095Y-50341905D01*
X184025714Y-50437143D01*
X184073333Y-50484762D01*
X184168571Y-50532381D01*
X184454286Y-50532381D01*
X184549524Y-50484762D01*
X184597143Y-50437143D01*
X203966666Y-90827381D02*
X204300000Y-90351190D01*
X204538095Y-90827381D02*
X204538095Y-89827381D01*
X204157142Y-89827381D01*
X204061904Y-89875000D01*
X204014285Y-89922619D01*
X203966666Y-90017857D01*
X203966666Y-90160714D01*
X204014285Y-90255952D01*
X204061904Y-90303571D01*
X204157142Y-90351190D01*
X204538095Y-90351190D01*
X203633333Y-89827381D02*
X202966666Y-89827381D01*
X203395238Y-90827381D01*
X207466666Y-89327381D02*
X207800000Y-88851190D01*
X208038095Y-89327381D02*
X208038095Y-88327381D01*
X207657142Y-88327381D01*
X207561904Y-88375000D01*
X207514285Y-88422619D01*
X207466666Y-88517857D01*
X207466666Y-88660714D01*
X207514285Y-88755952D01*
X207561904Y-88803571D01*
X207657142Y-88851190D01*
X208038095Y-88851190D01*
X206609523Y-88327381D02*
X206800000Y-88327381D01*
X206895238Y-88375000D01*
X206942857Y-88422619D01*
X207038095Y-88565476D01*
X207085714Y-88755952D01*
X207085714Y-89136905D01*
X207038095Y-89232143D01*
X206990476Y-89279762D01*
X206895238Y-89327381D01*
X206704761Y-89327381D01*
X206609523Y-89279762D01*
X206561904Y-89232143D01*
X206514285Y-89136905D01*
X206514285Y-88898810D01*
X206561904Y-88803571D01*
X206609523Y-88755952D01*
X206704761Y-88708333D01*
X206895238Y-88708333D01*
X206990476Y-88755952D01*
X207038095Y-88803571D01*
X207085714Y-88898810D01*
X180891666Y-59552381D02*
X181225000Y-59076190D01*
X181463095Y-59552381D02*
X181463095Y-58552381D01*
X181082142Y-58552381D01*
X180986904Y-58600000D01*
X180939285Y-58647619D01*
X180891666Y-58742857D01*
X180891666Y-58885714D01*
X180939285Y-58980952D01*
X180986904Y-59028571D01*
X181082142Y-59076190D01*
X181463095Y-59076190D01*
X180558333Y-58552381D02*
X179939285Y-58552381D01*
X180272619Y-58933333D01*
X180129761Y-58933333D01*
X180034523Y-58980952D01*
X179986904Y-59028571D01*
X179939285Y-59123810D01*
X179939285Y-59361905D01*
X179986904Y-59457143D01*
X180034523Y-59504762D01*
X180129761Y-59552381D01*
X180415476Y-59552381D01*
X180510714Y-59504762D01*
X180558333Y-59457143D01*
X180841666Y-60977381D02*
X181175000Y-60501190D01*
X181413095Y-60977381D02*
X181413095Y-59977381D01*
X181032142Y-59977381D01*
X180936904Y-60025000D01*
X180889285Y-60072619D01*
X180841666Y-60167857D01*
X180841666Y-60310714D01*
X180889285Y-60405952D01*
X180936904Y-60453571D01*
X181032142Y-60501190D01*
X181413095Y-60501190D01*
X180460714Y-60072619D02*
X180413095Y-60025000D01*
X180317857Y-59977381D01*
X180079761Y-59977381D01*
X179984523Y-60025000D01*
X179936904Y-60072619D01*
X179889285Y-60167857D01*
X179889285Y-60263095D01*
X179936904Y-60405952D01*
X180508333Y-60977381D01*
X179889285Y-60977381D01*
X173362857Y-53443143D02*
X173410476Y-53490762D01*
X173553333Y-53538381D01*
X173648571Y-53538381D01*
X173791429Y-53490762D01*
X173886667Y-53395524D01*
X173934286Y-53300286D01*
X173981905Y-53109810D01*
X173981905Y-52966952D01*
X173934286Y-52776476D01*
X173886667Y-52681238D01*
X173791429Y-52586000D01*
X173648571Y-52538381D01*
X173553333Y-52538381D01*
X173410476Y-52586000D01*
X173362857Y-52633619D01*
X172410476Y-53538381D02*
X172981905Y-53538381D01*
X172696191Y-53538381D02*
X172696191Y-52538381D01*
X172791429Y-52681238D01*
X172886667Y-52776476D01*
X172981905Y-52824095D01*
X171505714Y-52538381D02*
X171981905Y-52538381D01*
X172029524Y-53014571D01*
X171981905Y-52966952D01*
X171886667Y-52919333D01*
X171648571Y-52919333D01*
X171553333Y-52966952D01*
X171505714Y-53014571D01*
X171458095Y-53109810D01*
X171458095Y-53347905D01*
X171505714Y-53443143D01*
X171553333Y-53490762D01*
X171648571Y-53538381D01*
X171886667Y-53538381D01*
X171981905Y-53490762D01*
X172029524Y-53443143D01*
X186094666Y-70969143D02*
X186142285Y-71016762D01*
X186285142Y-71064381D01*
X186380380Y-71064381D01*
X186523238Y-71016762D01*
X186618476Y-70921524D01*
X186666095Y-70826286D01*
X186713714Y-70635810D01*
X186713714Y-70492952D01*
X186666095Y-70302476D01*
X186618476Y-70207238D01*
X186523238Y-70112000D01*
X186380380Y-70064381D01*
X186285142Y-70064381D01*
X186142285Y-70112000D01*
X186094666Y-70159619D01*
X185237523Y-70397714D02*
X185237523Y-71064381D01*
X185475619Y-70016762D02*
X185713714Y-70731048D01*
X185094666Y-70731048D01*
X198966666Y-84432143D02*
X199014285Y-84479762D01*
X199157142Y-84527381D01*
X199252380Y-84527381D01*
X199395238Y-84479762D01*
X199490476Y-84384524D01*
X199538095Y-84289286D01*
X199585714Y-84098810D01*
X199585714Y-83955952D01*
X199538095Y-83765476D01*
X199490476Y-83670238D01*
X199395238Y-83575000D01*
X199252380Y-83527381D01*
X199157142Y-83527381D01*
X199014285Y-83575000D01*
X198966666Y-83622619D01*
X198633333Y-83527381D02*
X198014285Y-83527381D01*
X198347619Y-83908333D01*
X198204761Y-83908333D01*
X198109523Y-83955952D01*
X198061904Y-84003571D01*
X198014285Y-84098810D01*
X198014285Y-84336905D01*
X198061904Y-84432143D01*
X198109523Y-84479762D01*
X198204761Y-84527381D01*
X198490476Y-84527381D01*
X198585714Y-84479762D01*
X198633333Y-84432143D01*
X181268666Y-74779143D02*
X181316285Y-74826762D01*
X181459142Y-74874381D01*
X181554380Y-74874381D01*
X181697238Y-74826762D01*
X181792476Y-74731524D01*
X181840095Y-74636286D01*
X181887714Y-74445810D01*
X181887714Y-74302952D01*
X181840095Y-74112476D01*
X181792476Y-74017238D01*
X181697238Y-73922000D01*
X181554380Y-73874381D01*
X181459142Y-73874381D01*
X181316285Y-73922000D01*
X181268666Y-73969619D01*
X180316285Y-74874381D02*
X180887714Y-74874381D01*
X180602000Y-74874381D02*
X180602000Y-73874381D01*
X180697238Y-74017238D01*
X180792476Y-74112476D01*
X180887714Y-74160095D01*
X188217857Y-56402381D02*
X188551191Y-55926190D01*
X188789286Y-56402381D02*
X188789286Y-55402381D01*
X188408333Y-55402381D01*
X188313095Y-55450000D01*
X188265476Y-55497619D01*
X188217857Y-55592857D01*
X188217857Y-55735714D01*
X188265476Y-55830952D01*
X188313095Y-55878571D01*
X188408333Y-55926190D01*
X188789286Y-55926190D01*
X187836905Y-55497619D02*
X187789286Y-55450000D01*
X187694048Y-55402381D01*
X187455952Y-55402381D01*
X187360714Y-55450000D01*
X187313095Y-55497619D01*
X187265476Y-55592857D01*
X187265476Y-55688095D01*
X187313095Y-55830952D01*
X187884524Y-56402381D01*
X187265476Y-56402381D01*
X186646429Y-55402381D02*
X186551190Y-55402381D01*
X186455952Y-55450000D01*
X186408333Y-55497619D01*
X186360714Y-55592857D01*
X186313095Y-55783333D01*
X186313095Y-56021429D01*
X186360714Y-56211905D01*
X186408333Y-56307143D01*
X186455952Y-56354762D01*
X186551190Y-56402381D01*
X186646429Y-56402381D01*
X186741667Y-56354762D01*
X186789286Y-56307143D01*
X186836905Y-56211905D01*
X186884524Y-56021429D01*
X186884524Y-55783333D01*
X186836905Y-55592857D01*
X186789286Y-55497619D01*
X186741667Y-55450000D01*
X186646429Y-55402381D01*
M02*
